<?xml version="1.0" encoding="utf-8"?>
<!-- Generator: Adobe Illustrator 16.0.0, SVG Export Plug-In . SVG Version: 6.00 Build 0)  -->
<!DOCTYPE svg PUBLIC "-//W3C//DTD SVG 1.0//EN" "http://www.w3.org/TR/2001/REC-SVG-20010904/DTD/svg10.dtd">
<svg version="1.0" id="Layer_1" xmlns="http://www.w3.org/2000/svg" xmlns:xlink="http://www.w3.org/1999/xlink" x="0px" y="0px"
	 width="50px" height="48px" viewBox="0 0 50 48" enable-background="new 0 0 50 48" xml:space="preserve">
<g>
	<g>
		<circle fill="#D7C0A9" cx="4.923" cy="28.429" r="4.923"/>
	</g>
	<g>
		<circle fill="#D7C0A9" cx="45.128" cy="28.429" r="4.923"/>
	</g>
	<g>
		<g>
			<path fill="#D7C0A9" d="M29.917,8.597c-2.039,8.892-9.995,15.526-19.505,15.526c-1.713,0-3.376-0.216-4.963-0.621
				c-0.329,1.441-0.51,2.939-0.51,4.48C4.939,39.038,13.902,48,24.957,48c11.056,0,20.018-8.962,20.018-20.018
				c0-1.52-0.176-2.998-0.496-4.421C36.423,23.292,29.97,16.706,29.917,8.597z"/>
		</g>
		<g>
			<path fill="#C2A787" d="M29.917,8.597c0-0.004,0-0.007,0-0.011c-1.587-0.404-3.248-0.621-4.96-0.621
				c-9.514,0-17.472,6.64-19.508,15.537c1.587,0.405,3.25,0.621,4.963,0.621C19.922,24.124,27.878,17.489,29.917,8.597z"/>
		</g>
		<g>
			<path fill="#C2A787" d="M29.919,8.586c-0.001,0.003-0.001,0.007-0.002,0.011c0.053,8.108,6.506,14.694,14.562,14.964
				C42.826,16.239,37.166,10.435,29.919,8.586z"/>
		</g>
		<g>
			<polygon fill="#D7C0A9" points="29.917,8.597 29.919,8.586 29.917,8.586 			"/>
		</g>
	</g>
	<g>
		<g>
			<path fill="#C2A787" d="M35.469,7.65c1.479-1.483,1.813-3.672,1.008-5.478l-6.484,6.499C31.799,9.471,33.987,9.134,35.469,7.65z"
				/>
		</g>
	</g>
	<g>
		<g>
			<path fill="#C2A787" d="M25.465,5.347C24.81,3.357,25.497,1.252,27.026,0l2.872,8.719C27.924,8.622,26.121,7.337,25.465,5.347z"
				/>
		</g>
	</g>
</g>
<g>
	<path fill="#FFFFFF" d="M18.836,35.48c-0.398,0-0.762-0.049-1.092-0.148s-0.614-0.234-0.852-0.403
		c-0.236-0.169-0.42-0.364-0.549-0.584s-0.193-0.446-0.193-0.679c0-0.208,0.051-0.395,0.152-0.563
		c0.102-0.167,0.265-0.25,0.488-0.25c0.254,0,0.448,0.063,0.581,0.187c0.134,0.125,0.2,0.269,0.2,0.429
		c0,0.135-0.022,0.307-0.066,0.514c-0.045,0.208-0.08,0.355-0.105,0.445c0.03,0.037,0.084,0.088,0.163,0.152
		c0.078,0.063,0.175,0.12,0.289,0.171c0.136,0.063,0.277,0.114,0.426,0.152s0.358,0.058,0.63,0.058c0.254,0,0.499-0.043,0.734-0.127
		c0.235-0.085,0.441-0.221,0.62-0.406c0.187-0.195,0.332-0.423,0.436-0.683c0.104-0.261,0.155-0.603,0.155-1.025
		c0-0.229-0.023-0.455-0.072-0.679c-0.049-0.225-0.14-0.42-0.271-0.584c-0.132-0.166-0.312-0.293-0.538-0.385
		c-0.227-0.091-0.515-0.137-0.862-0.137h-0.833v-0.729h0.554c0.585,0,1.008-0.161,1.267-0.482s0.389-0.806,0.389-1.454
		c0-0.528-0.126-0.928-0.376-1.196s-0.604-0.403-1.063-0.403c-0.221,0-0.401,0.027-0.544,0.08c-0.142,0.053-0.258,0.104-0.347,0.155
		c-0.106,0.06-0.193,0.125-0.261,0.196c-0.068,0.072-0.119,0.125-0.152,0.159c0.029,0.136,0.065,0.302,0.107,0.498
		c0.042,0.197,0.063,0.384,0.063,0.562c0,0.157-0.066,0.298-0.2,0.423c-0.133,0.124-0.329,0.187-0.587,0.187
		c-0.225,0-0.389-0.08-0.492-0.24c-0.104-0.161-0.155-0.348-0.155-0.559c0-0.221,0.062-0.445,0.184-0.674
		c0.123-0.229,0.305-0.441,0.547-0.641c0.24-0.199,0.535-0.359,0.882-0.482s0.747-0.184,1.2-0.184c0.52,0,0.95,0.076,1.291,0.231
		c0.341,0.154,0.608,0.341,0.803,0.562c0.191,0.216,0.322,0.442,0.395,0.68c0.071,0.236,0.107,0.439,0.107,0.609
		c0,0.211-0.029,0.424-0.089,0.638s-0.156,0.411-0.292,0.593c-0.148,0.199-0.344,0.381-0.587,0.543
		c-0.243,0.163-0.55,0.295-0.917,0.396v0.102c0.236,0.021,0.489,0.074,0.758,0.159s0.512,0.21,0.727,0.374
		c0.225,0.174,0.409,0.397,0.553,0.67c0.144,0.273,0.216,0.619,0.216,1.038c0,0.813-0.326,1.472-0.978,1.978
		S19.813,35.48,18.836,35.48z"/>
	<path fill="#FFFFFF" d="M27.239,30.219h-3.783v-1.003h3.783V30.219z"/>
	<path fill="#FFFFFF" d="M34.311,26.766l-4.521,8.715h-0.797l4.254-8.061h-2.49c-0.367,0-0.655,0.004-0.863,0.012
		c-0.207,0.009-0.397,0.049-0.57,0.121c-0.132,0.055-0.249,0.195-0.353,0.422s-0.184,0.516-0.238,0.867h-0.388v-2.488h5.967V26.766z
		"/>
</g>
</svg>
