<?xml version="1.0" encoding="utf-8"?>
<!-- Generator: Adobe Illustrator 16.0.0, SVG Export Plug-In . SVG Version: 6.00 Build 0)  -->
<!DOCTYPE svg PUBLIC "-//W3C//DTD SVG 1.0//EN" "http://www.w3.org/TR/2001/REC-SVG-20010904/DTD/svg10.dtd">
<svg version="1.0" id="Layer_1" xmlns="http://www.w3.org/2000/svg" xmlns:xlink="http://www.w3.org/1999/xlink" x="0px" y="0px"
	 width="47px" height="48px" viewBox="0 0 47 48" enable-background="new 0 0 47 48" xml:space="preserve">
<g>
	<defs>
		<path id="SVGID_1_" d="M44.397,8.677L25.643,0.509c0,0-1.306-0.509-2.273-0.509c-0.967,0-2.159,0.458-2.159,0.458L2.08,8.771
			c0,0-2.08,0.862-2.08,2.95c0,2.089,0,18.413,0,20.833c0,2.418,2.367,4.053,2.367,4.053L20.53,47.039c0,0,1.643,0.961,2.822,0.961
			s2.556-0.809,2.556-0.809l18.628-10.699c0,0,2.169-1.3,2.169-4.104c0-2.803,0-17.846,0-20.118
			C46.705,10,44.397,8.677,44.397,8.677z"/>
	</defs>
	<clipPath id="SVGID_2_">
		<use xlink:href="#SVGID_1_"  overflow="visible"/>
	</clipPath>
	<g clip-path="url(#SVGID_2_)">
		<g>
			<polygon fill="#CCB391" points="23.032,51.591 -3.106,36.578 -3.106,7.949 23.032,21.567 			"/>
		</g>
		<g>
			<polygon fill="#C2A787" points="23.032,51.591 49.172,36.578 49.172,7.949 23.032,21.567 			"/>
		</g>
		<g>
			<polygon fill="#D7C0A9" points="23.019,21.574 49.156,7.957 23.052,-3.413 -3.087,7.947 			"/>
		</g>
	</g>
</g>
<g>
	<path fill="#FFFFFF" d="M22.116,29.021h-5.948v-0.868c0.114-0.131,0.273-0.277,0.477-0.441c0.203-0.162,0.444-0.339,0.724-0.529
		c0.169-0.113,0.372-0.238,0.609-0.374c0.236-0.136,0.505-0.283,0.806-0.444c0.334-0.177,0.592-0.334,0.771-0.469
		s0.344-0.303,0.492-0.501c0.097-0.131,0.175-0.295,0.234-0.492c0.06-0.196,0.089-0.477,0.089-0.84c0-0.528-0.142-0.917-0.425-1.164
		c-0.284-0.248-0.647-0.371-1.092-0.371c-0.275,0-0.536,0.054-0.781,0.162c-0.245,0.108-0.43,0.257-0.552,0.448
		c0.029,0.135,0.066,0.296,0.11,0.482c0.045,0.186,0.067,0.368,0.067,0.546c0,0.161-0.067,0.304-0.2,0.428
		c-0.134,0.125-0.331,0.188-0.594,0.188c-0.212,0-0.374-0.073-0.488-0.219c-0.114-0.146-0.172-0.342-0.172-0.587
		c0-0.229,0.063-0.458,0.19-0.689c0.127-0.23,0.309-0.443,0.546-0.638c0.232-0.19,0.521-0.345,0.863-0.463s0.713-0.178,1.111-0.178
		c0.867,0,1.556,0.193,2.065,0.58s0.766,0.904,0.766,1.55c0,0.309-0.046,0.59-0.137,0.844s-0.238,0.478-0.441,0.672
		c-0.225,0.215-0.486,0.4-0.787,0.555s-0.76,0.369-1.377,0.644c-0.368,0.165-0.711,0.337-1.028,0.517s-0.578,0.354-0.781,0.523
		h4.882V29.021z"/>
	<path fill="#FFFFFF" d="M29.25,23.092c0.271,0.326,0.473,0.708,0.605,1.146c0.135,0.438,0.201,0.896,0.201,1.374
		c0,0.576-0.082,1.092-0.248,1.546c-0.164,0.455-0.391,0.833-0.68,1.134c-0.295,0.309-0.646,0.541-1.053,0.697
		c-0.406,0.157-0.859,0.235-1.359,0.235c-0.545,0-1.031-0.091-1.459-0.272c-0.428-0.183-0.775-0.432-1.042-0.75
		c-0.279-0.33-0.487-0.716-0.625-1.158c-0.138-0.441-0.206-0.919-0.206-1.432c0-0.503,0.066-0.966,0.199-1.39
		c0.134-0.423,0.342-0.806,0.626-1.149c0.271-0.33,0.619-0.59,1.047-0.781c0.428-0.19,0.916-0.286,1.467-0.286
		c0.578,0,1.076,0.097,1.49,0.292C28.631,22.493,28.975,22.757,29.25,23.092z M28.654,25.611c0-1.007-0.174-1.788-0.518-2.342
		c-0.346-0.554-0.814-0.832-1.406-0.832c-0.602,0-1.076,0.277-1.422,0.832c-0.347,0.554-0.521,1.335-0.521,2.342
		c0,0.957,0.166,1.727,0.498,2.308c0.332,0.582,0.811,0.873,1.432,0.873c0.623,0,1.102-0.291,1.436-0.873
		C28.486,27.338,28.654,26.568,28.654,25.611z"/>
</g>
</svg>
