<?xml version="1.0" encoding="utf-8"?>
<!-- Generator: Adobe Illustrator 16.0.0, SVG Export Plug-In . SVG Version: 6.00 Build 0)  -->
<!DOCTYPE svg PUBLIC "-//W3C//DTD SVG 1.0//EN" "http://www.w3.org/TR/2001/REC-SVG-20010904/DTD/svg10.dtd">
<svg version="1.0" id="Layer_1" xmlns="http://www.w3.org/2000/svg" xmlns:xlink="http://www.w3.org/1999/xlink" x="0px" y="0px"
	 width="86px" height="48px" viewBox="0 0 86 48" enable-background="new 0 0 86 48" xml:space="preserve">
<g>
	<g>
		<polygon fill="#C2A787" points="68.745,36.294 62.498,33.66 56.466,38.705 50.934,35.932 45.261,40.906 39.348,38.207 
			32.982,43.318 26.587,40.713 20.741,45.722 20.741,10.603 68.745,10.603 		"/>
	</g>
	<g>
		<path fill="#D7C0A9" d="M-0.393,45.327C-0.393,46.804,0.804,48,2.28,48h15.945c1.477,0,2.673-1.196,2.673-2.673V9.269
			c0-1.476-1.196-2.672-2.673-2.672H2.28c-1.477,0-2.673,1.196-2.673,2.672V45.327z"/>
	</g>
	<g>
		<path fill="#F7FAFB" d="M13.533,36.725c0,1.477-1.196,2.672-2.673,2.672H9.292c-1.477,0-2.673-1.195-2.673-2.672V17.007
			c0-1.476,1.196-2.672,2.673-2.672h1.568c1.477,0,2.673,1.196,2.673,2.672V36.725z"/>
	</g>
</g>
<g>
	<path fill="#FFFFFF" d="M32.378,29.248H28.1v-0.45c0.127-0.009,0.324-0.026,0.593-0.054s0.454-0.057,0.556-0.086
		c0.131-0.043,0.231-0.111,0.302-0.207c0.069-0.094,0.104-0.237,0.104-0.428v-4.456h-1.58v-0.533h0.349
		c0.457,0,0.866-0.084,1.229-0.254c0.361-0.169,0.621-0.351,0.777-0.546h0.527c-0.013,0.275-0.025,0.597-0.038,0.965
		s-0.02,0.698-0.02,0.99v3.764c0,0.148,0.033,0.281,0.099,0.396c0.065,0.117,0.159,0.203,0.282,0.258
		c0.11,0.047,0.29,0.089,0.54,0.127c0.249,0.038,0.436,0.059,0.559,0.063V29.248z"/>
	<path fill="#FFFFFF" d="M39.348,23.32c0.271,0.326,0.473,0.708,0.605,1.146c0.134,0.438,0.2,0.896,0.2,1.375
		c0,0.576-0.082,1.091-0.247,1.545c-0.165,0.455-0.392,0.834-0.68,1.134c-0.296,0.31-0.647,0.542-1.054,0.698
		s-0.859,0.234-1.358,0.234c-0.546,0-1.032-0.09-1.46-0.272s-0.774-0.432-1.041-0.749c-0.279-0.33-0.487-0.717-0.625-1.158
		c-0.138-0.442-0.206-0.92-0.206-1.432c0-0.504,0.066-0.967,0.199-1.39c0.134-0.423,0.342-0.806,0.626-1.149
		c0.271-0.33,0.619-0.59,1.047-0.781s0.916-0.286,1.467-0.286c0.579,0,1.076,0.097,1.491,0.292S39.072,22.985,39.348,23.32z
		 M38.751,25.84c0-1.007-0.173-1.788-0.518-2.342s-0.813-0.832-1.406-0.832c-0.601,0-1.075,0.277-1.422,0.832
		s-0.521,1.335-0.521,2.342c0,0.957,0.166,1.726,0.498,2.307c0.332,0.582,0.81,0.873,1.432,0.873s1.101-0.291,1.435-0.873
		C38.583,27.565,38.751,26.797,38.751,25.84z"/>
	<path fill="#FFFFFF" d="M47.327,23.32c0.271,0.326,0.473,0.708,0.605,1.146c0.134,0.438,0.2,0.896,0.2,1.375
		c0,0.576-0.082,1.091-0.247,1.545c-0.165,0.455-0.392,0.834-0.68,1.134c-0.296,0.31-0.647,0.542-1.054,0.698
		s-0.859,0.234-1.358,0.234c-0.546,0-1.032-0.09-1.46-0.272s-0.774-0.432-1.041-0.749c-0.279-0.33-0.487-0.717-0.625-1.158
		c-0.138-0.442-0.206-0.92-0.206-1.432c0-0.504,0.066-0.967,0.199-1.39c0.134-0.423,0.342-0.806,0.626-1.149
		c0.271-0.33,0.619-0.59,1.047-0.781s0.916-0.286,1.467-0.286c0.579,0,1.076,0.097,1.491,0.292S47.052,22.985,47.327,23.32z
		 M46.73,25.84c0-1.007-0.173-1.788-0.518-2.342s-0.813-0.832-1.406-0.832c-0.601,0-1.075,0.277-1.422,0.832
		s-0.521,1.335-0.521,2.342c0,0.957,0.166,1.726,0.498,2.307c0.332,0.582,0.81,0.873,1.432,0.873s1.101-0.291,1.435-0.873
		C46.563,27.565,46.73,26.797,46.73,25.84z"/>
	<path fill="#FFFFFF" d="M53.788,22.374c0,0.745-0.201,1.322-0.603,1.733c-0.402,0.411-0.921,0.616-1.556,0.616
		s-1.152-0.205-1.552-0.616c-0.4-0.411-0.6-0.988-0.6-1.733c0-0.703,0.195-1.27,0.587-1.701s0.915-0.647,1.571-0.647
		c0.647,0,1.168,0.216,1.562,0.647S53.788,21.671,53.788,22.374z M58.302,20.209l-7.487,9.039h-0.873l7.471-9.039H58.302z
		 M52.716,22.374c0-0.552-0.092-1.004-0.273-1.356s-0.45-0.529-0.806-0.529c-0.364,0-0.637,0.176-0.816,0.529
		s-0.27,0.805-0.27,1.356c0,0.565,0.091,1.02,0.273,1.366c0.182,0.346,0.45,0.519,0.806,0.519s0.625-0.173,0.81-0.519
		C52.623,23.394,52.716,22.939,52.716,22.374z M58.721,27.104c0,0.744-0.201,1.322-0.604,1.732s-0.92,0.615-1.555,0.615
		s-1.152-0.205-1.553-0.615c-0.399-0.41-0.6-0.988-0.6-1.732c0-0.703,0.195-1.27,0.587-1.701c0.392-0.432,0.915-0.648,1.571-0.648
		c0.647,0,1.168,0.216,1.562,0.648C58.523,25.834,58.721,26.4,58.721,27.104z M57.647,27.104c0-0.553-0.091-1.004-0.272-1.357
		c-0.183-0.352-0.451-0.528-0.807-0.528c-0.364,0-0.636,0.177-0.815,0.528c-0.18,0.354-0.27,0.805-0.27,1.357
		c0,0.564,0.091,1.02,0.272,1.365c0.182,0.347,0.451,0.52,0.807,0.52s0.625-0.173,0.809-0.52
		C57.556,28.123,57.647,27.668,57.647,27.104z"/>
</g>
<g>
	<polygon fill="#C2A787" points="77.78,0 79.743,5.229 85.323,5.48 80.957,8.964 82.442,14.349 77.78,11.272 73.117,14.349 
		74.603,8.964 70.236,5.48 75.816,5.229 	"/>
</g>
</svg>
