<?xml version="1.0" encoding="utf-8"?>
<!-- Generator: Adobe Illustrator 16.0.0, SVG Export Plug-In . SVG Version: 6.00 Build 0)  -->
<!DOCTYPE svg PUBLIC "-//W3C//DTD SVG 1.0//EN" "http://www.w3.org/TR/2001/REC-SVG-20010904/DTD/svg10.dtd">
<svg version="1.0" id="Layer_1" xmlns="http://www.w3.org/2000/svg" xmlns:xlink="http://www.w3.org/1999/xlink" x="0px" y="0px"
	 width="48px" height="48px" viewBox="0 0 48 48" enable-background="new 0 0 48 48" xml:space="preserve">
<g>
	<g>
		<circle fill="#227B65" cx="24.069" cy="13.453" r="13.453"/>
	</g>
	<g>
		<circle fill="#227B65" cx="13.453" cy="20.683" r="13.453"/>
	</g>
	<g>
		<circle fill="#227B65" cx="37.156" cy="14.46" r="9.701"/>
	</g>
	<g>
		<circle fill="#227B65" cx="17.206" cy="31.481" r="9.701"/>
	</g>
	<g>
		<circle fill="#227B65" cx="32.946" cy="25.99" r="15.009"/>
	</g>
	<g>
		<path fill="#227B65" d="M26.464,48h-9.073v-1.762c0,0,2.539-0.48,2.539-6.246s6.534-5.17,6.534-5.17V48z"/>
	</g>
	<g>
		<path fill="#227B65" d="M25.994,48h6.978v-1.762c0,0-2.54-0.48-2.54-6.246s-4.438-5.17-4.438-5.17V48z"/>
	</g>
</g>
<g>
	<path fill="#FFFFFF" d="M20.639,24.109l-0.171,2.653H12.99v-0.45c0.127-0.009,0.296-0.027,0.508-0.055s0.349-0.056,0.412-0.086
		c0.136-0.063,0.23-0.146,0.283-0.247s0.079-0.23,0.079-0.388v-6.474c0-0.14-0.023-0.263-0.07-0.372
		c-0.046-0.107-0.144-0.195-0.292-0.263c-0.114-0.055-0.268-0.104-0.46-0.146s-0.346-0.068-0.46-0.076v-0.451h6.97v2.171h-0.477
		c-0.084-0.322-0.268-0.664-0.549-1.025c-0.281-0.362-0.549-0.56-0.803-0.594c-0.131-0.017-0.288-0.03-0.47-0.038
		s-0.39-0.013-0.622-0.013h-1.416v3.58h1.016c0.326,0,0.564-0.031,0.715-0.092c0.15-0.062,0.282-0.164,0.396-0.308
		c0.093-0.123,0.173-0.287,0.238-0.492c0.065-0.206,0.108-0.399,0.13-0.581h0.476v3.529h-0.476
		c-0.017-0.203-0.063-0.418-0.137-0.645c-0.074-0.226-0.151-0.39-0.231-0.492c-0.131-0.165-0.28-0.273-0.447-0.324
		s-0.389-0.076-0.664-0.076h-1.016v2.699c0,0.271,0.02,0.484,0.058,0.641s0.112,0.274,0.222,0.355
		c0.11,0.08,0.261,0.131,0.451,0.154s0.461,0.035,0.813,0.035c0.14,0,0.323,0,0.552,0s0.422-0.008,0.578-0.025
		c0.161-0.018,0.327-0.048,0.498-0.092c0.172-0.045,0.293-0.105,0.365-0.182c0.194-0.203,0.398-0.511,0.612-0.923
		c0.214-0.413,0.351-0.716,0.409-0.911H20.639z"/>
	<path fill="#FFFFFF" d="M28.027,26.763H26.14c-0.331-0.478-0.685-0.989-1.062-1.534c-0.377-0.546-0.77-1.076-1.176-1.592
		l-0.521,0.486v1.485c0,0.152,0.028,0.278,0.083,0.378c0.055,0.099,0.144,0.173,0.267,0.219c0.102,0.042,0.199,0.074,0.292,0.095
		c0.093,0.021,0.201,0.037,0.323,0.045v0.419H21.28v-0.419c0.097-0.008,0.197-0.018,0.303-0.028
		c0.104-0.011,0.193-0.026,0.265-0.048c0.117-0.038,0.206-0.105,0.265-0.2s0.088-0.22,0.088-0.372v-7.279
		c0-0.157-0.032-0.304-0.098-0.441s-0.151-0.242-0.258-0.314c-0.089-0.067-0.227-0.112-0.415-0.133
		c-0.188-0.021-0.34-0.036-0.454-0.044v-0.406l2.316-0.14l0.089,0.095v6.622c0.331-0.33,0.688-0.684,1.071-1.063
		c0.383-0.378,0.706-0.716,0.969-1.012c0.033-0.038,0.07-0.088,0.11-0.149s0.061-0.111,0.061-0.15c0-0.114-0.092-0.199-0.276-0.254
		c-0.184-0.055-0.36-0.094-0.529-0.115v-0.406h2.753v0.394c-0.355,0.106-0.67,0.238-0.942,0.396
		c-0.273,0.159-0.481,0.302-0.626,0.429c-0.102,0.084-0.245,0.222-0.432,0.412s-0.447,0.439-0.781,0.748
		c0.347,0.428,0.737,0.94,1.172,1.537c0.434,0.597,0.75,1.029,0.949,1.295c0.187,0.25,0.354,0.413,0.501,0.489
		c0.148,0.076,0.364,0.122,0.647,0.14V26.763z"/>
	<path fill="#FFFFFF" d="M34.464,23.57c0,0.44-0.07,0.873-0.21,1.298c-0.14,0.425-0.339,0.786-0.597,1.082
		c-0.293,0.339-0.632,0.591-1.017,0.755c-0.386,0.166-0.818,0.248-1.297,0.248c-0.398,0-0.777-0.075-1.138-0.226
		c-0.359-0.149-0.68-0.369-0.959-0.657c-0.275-0.283-0.495-0.629-0.658-1.037c-0.163-0.409-0.244-0.867-0.244-1.375
		c0-0.978,0.285-1.777,0.854-2.399c0.57-0.622,1.316-0.933,2.24-0.933c0.877,0,1.6,0.295,2.17,0.886
		C34.179,21.802,34.464,22.588,34.464,23.57z M33.149,23.583c0-0.317-0.031-0.653-0.095-1.006c-0.063-0.353-0.159-0.652-0.286-0.898
		c-0.136-0.262-0.314-0.473-0.534-0.631c-0.221-0.159-0.49-0.238-0.808-0.238c-0.327,0-0.605,0.081-0.837,0.241
		c-0.23,0.161-0.418,0.381-0.563,0.66c-0.136,0.258-0.23,0.552-0.286,0.882c-0.055,0.33-0.083,0.649-0.083,0.958
		c0,0.406,0.033,0.782,0.099,1.127c0.066,0.345,0.171,0.652,0.315,0.924c0.144,0.271,0.325,0.482,0.544,0.638
		c0.218,0.154,0.488,0.231,0.811,0.231c0.529,0,0.949-0.256,1.259-0.768C32.995,25.19,33.149,24.484,33.149,23.583z"/>
</g>
</svg>
