<?xml version="1.0" encoding="utf-8"?>
<!-- Generator: Adobe Illustrator 16.0.0, SVG Export Plug-In . SVG Version: 6.00 Build 0)  -->
<!DOCTYPE svg PUBLIC "-//W3C//DTD SVG 1.0//EN" "http://www.w3.org/TR/2001/REC-SVG-20010904/DTD/svg10.dtd">
<svg version="1.0" id="Layer_1" xmlns="http://www.w3.org/2000/svg" xmlns:xlink="http://www.w3.org/1999/xlink" x="0px" y="0px"
	 width="61px" height="48px" viewBox="0 0 61 48" enable-background="new 0 0 61 48" xml:space="preserve">
<g>
	<g>
		<g>
			<path fill="#C2A787" d="M45.051,17.464l-6.935,8.229c-2.174-2.951-2.382,10.195,0,7.66l6.935,7.4
				C41.015,45.154,34.855,48,29.267,48c-11.128,0-19.202-7.918-19.202-18.736c0-10.661,8.281-18.424,19.668-18.424
				C35.27,10.839,41.325,13.427,45.051,17.464z"/>
		</g>
	</g>
	<g>
		<g>
			<path fill="#CCB391" d="M45.877,5.788c8.475,0,13.939,3.51,13.939,8.875c0,3.459-2.307,6.417-5.917,7.521
				c4.212,0.953,6.97,4.462,6.97,8.875c0,6.017-5.566,9.877-14.14,9.877H28.078V5.788H45.877z"/>
		</g>
	</g>
	<g>
		<g>
			<path fill="#D7C0A9" d="M13.738,30.184l-1.806,4.965H0L14.842,0h11.933l14.29,35.148H28.68l-1.754-4.965H13.738z"/>
		</g>
	</g>
</g>
<g>
	<path fill="#FFFFFF" d="M25.739,30.576h-4.277v-0.45c0.127-0.009,0.324-0.026,0.593-0.054s0.454-0.057,0.556-0.086
		c0.131-0.043,0.231-0.111,0.302-0.207c0.069-0.094,0.104-0.237,0.104-0.428v-4.456h-1.58v-0.533h0.349
		c0.457,0,0.866-0.084,1.229-0.254c0.361-0.169,0.621-0.351,0.777-0.546h0.526c-0.012,0.275-0.025,0.597-0.037,0.965
		c-0.014,0.368-0.02,0.698-0.02,0.99v3.764c0,0.148,0.033,0.281,0.099,0.396c0.065,0.117,0.159,0.203,0.282,0.258
		c0.11,0.047,0.29,0.089,0.539,0.127c0.25,0.038,0.437,0.059,0.559,0.063V30.576z"/>
	<path fill="#FFFFFF" d="M32.837,30.576h-5.948v-0.867c0.114-0.131,0.272-0.278,0.476-0.441c0.203-0.162,0.445-0.34,0.725-0.529
		c0.169-0.114,0.372-0.238,0.609-0.375c0.236-0.135,0.505-0.283,0.806-0.443c0.334-0.178,0.592-0.334,0.771-0.469
		c0.18-0.136,0.344-0.303,0.491-0.502c0.098-0.131,0.176-0.295,0.235-0.491s0.089-0.477,0.089-0.841
		c0-0.527-0.142-0.916-0.426-1.163c-0.283-0.248-0.646-0.371-1.092-0.371c-0.274,0-0.535,0.054-0.78,0.162
		c-0.245,0.108-0.43,0.257-0.552,0.448c0.029,0.135,0.066,0.296,0.11,0.482c0.045,0.187,0.067,0.368,0.067,0.546
		c0,0.16-0.067,0.304-0.2,0.428c-0.134,0.125-0.331,0.188-0.594,0.188c-0.212,0-0.374-0.072-0.489-0.219
		c-0.113-0.146-0.171-0.342-0.171-0.587c0-0.229,0.063-0.458,0.19-0.689c0.127-0.23,0.309-0.443,0.546-0.638
		c0.232-0.19,0.521-0.345,0.863-0.463s0.713-0.178,1.11-0.178c0.868,0,1.557,0.193,2.066,0.58s0.766,0.904,0.766,1.551
		c0,0.309-0.046,0.59-0.137,0.844c-0.091,0.253-0.238,0.477-0.441,0.672c-0.225,0.215-0.486,0.4-0.787,0.555
		s-0.76,0.369-1.377,0.643c-0.369,0.166-0.711,0.338-1.029,0.518c-0.316,0.18-0.577,0.354-0.78,0.523h4.882V30.576z"/>
	<path fill="#FFFFFF" d="M39.972,24.648c0.271,0.326,0.473,0.708,0.605,1.145c0.134,0.439,0.2,0.896,0.2,1.375
		c0,0.576-0.083,1.091-0.247,1.545c-0.166,0.455-0.392,0.834-0.68,1.134c-0.296,0.31-0.647,0.542-1.054,0.698
		s-0.859,0.234-1.358,0.234c-0.546,0-1.032-0.09-1.46-0.272s-0.774-0.432-1.041-0.749c-0.279-0.33-0.487-0.717-0.625-1.158
		c-0.138-0.442-0.206-0.92-0.206-1.432c0-0.504,0.066-0.967,0.199-1.391c0.134-0.423,0.342-0.806,0.625-1.148
		c0.271-0.33,0.62-0.59,1.048-0.781s0.916-0.286,1.466-0.286c0.58,0,1.077,0.097,1.492,0.292S39.696,24.313,39.972,24.648z
		 M39.374,27.168c0-1.008-0.172-1.788-0.517-2.342s-0.813-0.832-1.406-0.832c-0.601,0-1.075,0.277-1.422,0.832
		s-0.521,1.334-0.521,2.342c0,0.957,0.166,1.726,0.498,2.307c0.332,0.582,0.81,0.873,1.432,0.873s1.101-0.291,1.435-0.873
		C39.207,28.894,39.374,28.125,39.374,27.168z"/>
</g>
</svg>
