<?xml version="1.0" encoding="utf-8"?>
<!-- Generator: Adobe Illustrator 16.0.0, SVG Export Plug-In . SVG Version: 6.00 Build 0)  -->
<!DOCTYPE svg PUBLIC "-//W3C//DTD SVG 1.0//EN" "http://www.w3.org/TR/2001/REC-SVG-20010904/DTD/svg10.dtd">
<svg version="1.0" id="Layer_1" xmlns="http://www.w3.org/2000/svg" xmlns:xlink="http://www.w3.org/1999/xlink" x="0px" y="0px"
	 width="24px" height="24px" viewBox="0 0 24 24" enable-background="new 0 0 24 24" xml:space="preserve">
<g>
	<g>
		<path id="SVGID_1_" fill="#C2A787" d="M11.496,1.137c0.197,0.123,0.421,0.302,0.668,0.538c0.236,0.246,0.47,0.55,0.697,0.907
			c0.218,0.339,0.41,0.737,0.58,1.199c0.139,0.461,0.207,0.999,0.207,1.614C13.63,6.522,13.38,7.424,12.9,8.102
			c-0.233,0.327-0.481,0.63-0.746,0.906c-0.291,0.276-0.6,0.559-0.928,0.846c-0.188,0.194-0.361,0.415-0.521,0.661
			c-0.188,0.257-0.282,0.553-0.282,0.892c0,0.33,0.097,0.601,0.289,0.815c0.163,0.205,0.323,0.385,0.478,0.538l1.069,0.877
			c0.664,0.545,1.247,1.143,1.747,1.799c0.473,0.666,0.719,1.537,0.738,2.612c0,1.527-0.676,2.88-2.023,4.062
			c-1.396,1.22-3.416,1.85-6.054,1.891c-2.208-0.021-3.856-0.491-4.944-1.411c-1.1-0.86-1.648-1.888-1.648-3.085
			c0-0.583,0.178-1.232,0.537-1.949c0.346-0.716,0.974-1.346,1.884-1.888c1.021-0.582,2.092-0.972,3.217-1.166
			c1.112-0.163,2.036-0.256,2.771-0.276c-0.228-0.299-0.43-0.617-0.606-0.957c-0.208-0.33-0.312-0.729-0.312-1.19
			c0-0.277,0.039-0.511,0.117-0.695c0.069-0.196,0.135-0.375,0.193-0.541c-0.357,0.04-0.695,0.061-1.014,0.061
			c-1.678-0.021-2.957-0.549-3.836-1.583C2.104,8.354,1.643,7.232,1.643,5.952C1.643,4.403,2.294,3,3.6,1.739
			C4.497,1,5.43,0.52,6.395,0.292C7.352,0.098,8.246,0,9.082,0h6.305l-1.947,1.137H11.496z M12.713,19.279
			c0-0.799-0.261-1.495-0.781-2.09c-0.553-0.563-1.416-1.256-2.591-2.076c-0.2-0.021-0.437-0.03-0.707-0.03
			c-0.159-0.021-0.571,0-1.233,0.062c-0.652,0.092-1.32,0.24-2.004,0.445c-0.16,0.063-0.386,0.154-0.676,0.277
			C4.43,16,4.133,16.189,3.831,16.436c-0.291,0.256-0.537,0.573-0.737,0.953c-0.23,0.4-0.346,0.883-0.346,1.445
			c0,1.107,0.501,2.021,1.504,2.738c0.954,0.717,2.258,1.086,3.914,1.105c1.486-0.021,2.62-0.349,3.402-0.982
			C12.331,21.068,12.713,20.266,12.713,19.279z M8.318,10.041c0.83-0.03,1.521-0.329,2.074-0.895c0.268-0.4,0.438-0.811,0.515-1.232
			c0.046-0.421,0.069-0.774,0.069-1.063c0-1.241-0.318-2.496-0.955-3.758c-0.297-0.605-0.689-1.1-1.176-1.479
			C8.348,1.257,7.777,1.065,7.131,1.045C6.277,1.066,5.566,1.41,5,2.077C4.521,2.776,4.294,3.556,4.314,4.42
			c0,1.139,0.334,2.324,1,3.558c0.324,0.575,0.74,1.063,1.252,1.463S7.662,10.041,8.318,10.041z M23.926,3.443h-3.308V0.135h-1.603
			v3.309h-3.308v1.603h3.308v3.307h1.603V5.046h3.308V3.443z"/>
	</g>
	<g>
		<defs>
			<path id="SVGID_2_" d="M11.496,1.137c0.197,0.123,0.421,0.302,0.668,0.538c0.236,0.246,0.47,0.55,0.697,0.907
				c0.218,0.339,0.41,0.737,0.58,1.199c0.139,0.461,0.207,0.999,0.207,1.614C13.63,6.522,13.38,7.424,12.9,8.102
				c-0.233,0.327-0.481,0.63-0.746,0.906c-0.291,0.276-0.6,0.559-0.928,0.846c-0.188,0.194-0.361,0.415-0.521,0.661
				c-0.188,0.257-0.282,0.553-0.282,0.892c0,0.33,0.097,0.601,0.289,0.815c0.163,0.205,0.323,0.385,0.478,0.538l1.069,0.877
				c0.664,0.545,1.247,1.143,1.747,1.799c0.473,0.666,0.719,1.537,0.738,2.612c0,1.527-0.676,2.88-2.023,4.062
				c-1.396,1.22-3.416,1.85-6.054,1.891c-2.208-0.021-3.856-0.491-4.944-1.411c-1.1-0.86-1.648-1.888-1.648-3.085
				c0-0.583,0.178-1.232,0.537-1.949c0.346-0.716,0.974-1.346,1.884-1.888c1.021-0.582,2.092-0.972,3.217-1.166
				c1.112-0.163,2.036-0.256,2.771-0.276c-0.228-0.299-0.43-0.617-0.606-0.957c-0.208-0.33-0.312-0.729-0.312-1.19
				c0-0.277,0.039-0.511,0.117-0.695c0.069-0.196,0.135-0.375,0.193-0.541c-0.357,0.04-0.695,0.061-1.014,0.061
				c-1.678-0.021-2.957-0.549-3.836-1.583C2.104,8.354,1.643,7.232,1.643,5.952C1.643,4.403,2.294,3,3.6,1.739
				C4.497,1,5.43,0.52,6.395,0.292C7.352,0.098,8.246,0,9.082,0h6.305l-1.947,1.137H11.496z M12.713,19.279
				c0-0.799-0.261-1.495-0.781-2.09c-0.553-0.563-1.416-1.256-2.591-2.076c-0.2-0.021-0.437-0.03-0.707-0.03
				c-0.159-0.021-0.571,0-1.233,0.062c-0.652,0.092-1.32,0.24-2.004,0.445c-0.16,0.063-0.386,0.154-0.676,0.277
				C4.43,16,4.133,16.189,3.831,16.436c-0.291,0.256-0.537,0.573-0.737,0.953c-0.23,0.4-0.346,0.883-0.346,1.445
				c0,1.107,0.501,2.021,1.504,2.738c0.954,0.717,2.258,1.086,3.914,1.105c1.486-0.021,2.62-0.349,3.402-0.982
				C12.331,21.068,12.713,20.266,12.713,19.279z M8.318,10.041c0.83-0.03,1.521-0.329,2.074-0.895
				c0.268-0.4,0.438-0.811,0.515-1.232c0.046-0.421,0.069-0.774,0.069-1.063c0-1.241-0.318-2.496-0.955-3.758
				c-0.297-0.605-0.689-1.1-1.176-1.479C8.348,1.257,7.777,1.065,7.131,1.045C6.277,1.066,5.566,1.41,5,2.077
				C4.521,2.776,4.294,3.556,4.314,4.42c0,1.139,0.334,2.324,1,3.558c0.324,0.575,0.74,1.063,1.252,1.463S7.662,10.041,8.318,10.041
				z M23.926,3.443h-3.308V0.135h-1.603v3.309h-3.308v1.603h3.308v3.307h1.603V5.046h3.308V3.443z"/>
		</defs>
		<clipPath id="SVGID_3_">
			<use xlink:href="#SVGID_2_"  overflow="visible"/>
		</clipPath>
	</g>
</g>
</svg>
