<?xml version="1.0" encoding="utf-8"?>
<!-- Generator: Adobe Illustrator 16.0.0, SVG Export Plug-In . SVG Version: 6.00 Build 0)  -->
<!DOCTYPE svg PUBLIC "-//W3C//DTD SVG 1.0//EN" "http://www.w3.org/TR/2001/REC-SVG-20010904/DTD/svg10.dtd">
<svg version="1.0" id="Layer_1" xmlns="http://www.w3.org/2000/svg" xmlns:xlink="http://www.w3.org/1999/xlink" x="0px" y="0px"
	 width="24px" height="24px" viewBox="0 0 24 24" enable-background="new 0 0 24 24" xml:space="preserve">
<g id="g10" transform="matrix(1.3333333,0,0,-1.3333333,0,384)">
	<g id="g12" transform="scale(0.1)">
		<path id="path14" fill="#100F0D" d="M159.998,2829.998c0-2.761-2.234-4.995-4.995-4.995h-25.005c-2.761,0-4.995,2.234-4.995,4.995
			v25.005c0,2.761,2.234,4.995,4.995,4.995h25.005c2.761,0,4.995-2.234,4.995-4.995V2829.998z M159.998,2724.998
			c0-2.761-2.234-4.995-4.995-4.995H24.998c-2.761,0-4.995,2.234-4.995,4.995V2805h17.065c-1.348-4.768-2.065-9.8-2.065-15
			c0-30.374,24.624-54.998,54.998-54.998s54.998,24.624,54.998,54.998c0,5.2-0.718,10.232-2.065,15h17.065V2724.998z M90,2825.003
			c19.329,0,35.002-15.674,35.002-35.002s-15.674-35.002-35.002-35.002S54.998,2770.672,54.998,2790S70.671,2825.003,90,2825.003z
			 M155.002,2880H24.998C11.191,2880,0,2868.809,0,2855.003v-130.005C0,2711.192,11.191,2700,24.998,2700h130.005
			c13.806,0,24.998,11.191,24.998,24.998v130.005C180,2868.809,168.809,2880,155.002,2880"/>
	</g>
</g>
</svg>
