<?xml version="1.0" encoding="utf-8"?>
<!-- Generator: Adobe Illustrator 16.0.0, SVG Export Plug-In . SVG Version: 6.00 Build 0)  -->
<!DOCTYPE svg PUBLIC "-//W3C//DTD SVG 1.0//EN" "http://www.w3.org/TR/2001/REC-SVG-20010904/DTD/svg10.dtd">
<svg version="1.0" id="Layer_1" xmlns="http://www.w3.org/2000/svg" xmlns:xlink="http://www.w3.org/1999/xlink" x="0px" y="0px"
	 width="24px" height="24px" viewBox="0 0 24 24" enable-background="new 0 0 24 24" xml:space="preserve">
<g>
	<g>
		<g>
			<defs>
				<path id="SVGID_1_" d="M17.533,13.053l0.55-4.267h-4.226V6.062c0-1.234,0.345-2.077,2.115-2.077l2.258-0.001V0.168
					C17.842,0.117,16.501,0,14.939,0c-3.258,0-5.486,1.988-5.486,5.64v3.146H5.769v4.267h3.685V24h4.405V13.053H17.533z"/>
			</defs>
			<clipPath id="SVGID_2_">
				<use xlink:href="#SVGID_1_"  overflow="visible"/>
			</clipPath>
		</g>
	</g>
	<g>
		<g>
			<path id="SVGID_9_" fill="#3A5795" d="M17.533,13.053l0.55-4.267h-4.226V6.062c0-1.234,0.345-2.077,2.115-2.077l2.258-0.001
				V0.168C17.842,0.117,16.501,0,14.939,0c-3.258,0-5.486,1.988-5.486,5.64v3.146H5.769v4.267h3.685V24h4.405V13.053H17.533z"/>
		</g>
		<g>
			<defs>
				<path id="SVGID_4_" d="M17.533,13.053l0.55-4.267h-4.226V6.062c0-1.234,0.345-2.077,2.115-2.077l2.258-0.001V0.168
					C17.842,0.117,16.501,0,14.939,0c-3.258,0-5.486,1.988-5.486,5.64v3.146H5.769v4.267h3.685V24h4.405V13.053H17.533z"/>
			</defs>
			<use xlink:href="#SVGID_4_"  overflow="visible" fill="#3A5795"/>
			<clipPath id="SVGID_5_">
				<use xlink:href="#SVGID_4_"  overflow="visible"/>
			</clipPath>
		</g>
	</g>
	<g>
		<g>
			<defs>
				<path id="SVGID_6_" d="M17.533,13.053l0.55-4.267h-4.226V6.062c0-1.234,0.345-2.077,2.115-2.077l2.258-0.001V0.168
					C17.842,0.117,16.501,0,14.939,0c-3.258,0-5.486,1.988-5.486,5.64v3.146H5.769v4.267h3.685V24h4.405V13.053H17.533z"/>
			</defs>
			<clipPath id="SVGID_7_">
				<use xlink:href="#SVGID_6_"  overflow="visible"/>
			</clipPath>
		</g>
	</g>
</g>
</svg>
