<?xml version="1.0" encoding="utf-8"?>
<!-- Generator: Adobe Illustrator 16.0.0, SVG Export Plug-In . SVG Version: 6.00 Build 0)  -->
<!DOCTYPE svg PUBLIC "-//W3C//DTD SVG 1.0//EN" "http://www.w3.org/TR/2001/REC-SVG-20010904/DTD/svg10.dtd">
<svg version="1.0" id="Layer_1" xmlns="http://www.w3.org/2000/svg" xmlns:xlink="http://www.w3.org/1999/xlink" x="0px" y="0px"
	 width="24px" height="24px" viewBox="0 0 24 24" enable-background="new 0 0 24 24" xml:space="preserve">
<g>
	<g>
		<path id="SVGID_5_" fill="#C2A787" d="M24,4.557c-0.883,0.392-1.832,0.656-2.828,0.775c1.018-0.609,1.799-1.574,2.165-2.725
			c-0.95,0.564-2.004,0.976-3.126,1.196c-0.898-0.958-2.179-1.556-3.595-1.556c-2.72,0-4.925,2.205-4.925,4.924
			c0,0.387,0.043,0.762,0.127,1.122C7.727,8.088,4.1,6.128,1.671,3.147C1.247,3.876,1.005,4.721,1.005,5.624
			c0,1.708,0.868,3.216,2.188,4.098C2.387,9.698,1.628,9.475,0.964,9.107v0.062c0,2.386,1.698,4.376,3.949,4.828
			c-0.412,0.112-0.849,0.174-1.297,0.174c-0.316,0-0.626-0.032-0.927-0.09c0.627,1.957,2.444,3.38,4.6,3.421
			c-1.686,1.32-3.807,2.107-6.115,2.107c-0.396,0-0.787-0.024-1.174-0.069c2.18,1.396,4.768,2.212,7.549,2.212
			c9.057,0,14.01-7.502,14.01-14.009c0-0.213-0.007-0.426-0.015-0.639C22.504,6.412,23.339,5.545,24,4.557z"/>
	</g>
	<g>
		<defs>
			<path id="SVGID_1_" d="M24,4.557c-0.883,0.392-1.832,0.656-2.828,0.775c1.018-0.609,1.799-1.574,2.165-2.725
				c-0.95,0.564-2.004,0.976-3.126,1.196c-0.898-0.958-2.179-1.556-3.595-1.556c-2.72,0-4.925,2.205-4.925,4.924
				c0,0.387,0.043,0.762,0.127,1.122C7.727,8.088,4.1,6.128,1.671,3.147C1.247,3.876,1.005,4.721,1.005,5.624
				c0,1.708,0.868,3.216,2.188,4.098C2.387,9.698,1.628,9.475,0.964,9.107v0.062c0,2.386,1.698,4.376,3.949,4.828
				c-0.412,0.112-0.849,0.174-1.297,0.174c-0.316,0-0.626-0.032-0.927-0.09c0.627,1.957,2.444,3.38,4.6,3.421
				c-1.686,1.32-3.807,2.107-6.115,2.107c-0.396,0-0.787-0.024-1.174-0.069c2.18,1.396,4.768,2.212,7.549,2.212
				c9.057,0,14.01-7.502,14.01-14.009c0-0.213-0.007-0.426-0.015-0.639C22.504,6.412,23.339,5.545,24,4.557z"/>
		</defs>
		<clipPath id="SVGID_2_">
			<use xlink:href="#SVGID_1_"  overflow="visible"/>
		</clipPath>
	</g>
</g>
</svg>
