<?xml version="1.0" encoding="utf-8"?>
<!-- Generator: Adobe Illustrator 16.0.0, SVG Export Plug-In . SVG Version: 6.00 Build 0)  -->
<!DOCTYPE svg PUBLIC "-//W3C//DTD SVG 1.1//EN" "http://www.w3.org/Graphics/SVG/1.1/DTD/svg11.dtd">
<svg version="1.1" id="Layer_1" xmlns="http://www.w3.org/2000/svg" xmlns:xlink="http://www.w3.org/1999/xlink" x="0px" y="0px"
	 width="162.667px" height="112.781px" viewBox="0 0 162.667 112.781" enable-background="new 0 0 162.667 112.781"
	 xml:space="preserve">
<g>
	<g>
		<defs>
			<path id="SVGID_1_" d="M129.395,21.396L86.563,2.742c0,0-2.982-1.162-5.191-1.162c-2.208,0-4.932,1.045-4.932,1.045
				L32.751,21.612c0,0-4.75,1.968-4.75,6.738s0,42.053,0,47.577s5.407,9.258,5.407,9.258l41.48,23.822c0,0,3.751,2.195,6.444,2.195
				s5.836-1.846,5.836-1.846l42.544-24.436c0,0,4.952-2.969,4.952-9.371c0-6.401,0-40.757,0-45.945S129.395,21.396,129.395,21.396z"
				/>
		</defs>
		<clipPath id="SVGID_2_">
			<use xlink:href="#SVGID_1_"  overflow="visible"/>
		</clipPath>
		<g clip-path="url(#SVGID_2_)">
			<polygon fill="#CCB391" points="80.603,119.403 20.907,85.118 20.907,19.734 80.603,50.833 			"/>
			<polygon fill="#C2A787" points="80.603,119.403 140.299,85.118 140.299,19.734 80.603,50.833 			"/>
			<polygon fill="#D7C0A9" points="80.57,50.851 140.265,19.751 80.647,-6.214 20.952,19.729 			"/>
		</g>
	</g>
	<g>
		<path fill="#FFFFFF" d="M75.182,67.856h-9.873v-1.039c0.293-0.02,0.75-0.062,1.371-0.125c0.619-0.063,1.047-0.129,1.281-0.197
			c0.303-0.098,0.535-0.257,0.695-0.477c0.162-0.22,0.242-0.549,0.242-0.988V54.746H65.25v-1.23h0.807c1.055,0,2-0.195,2.834-0.586
			c0.836-0.391,1.434-0.811,1.795-1.26H71.9c-0.029,0.635-0.059,1.377-0.088,2.227s-0.043,1.611-0.043,2.285v8.686
			c0,0.342,0.074,0.647,0.227,0.916c0.15,0.269,0.369,0.467,0.652,0.594c0.254,0.107,0.668,0.205,1.244,0.293
			s1.006,0.137,1.289,0.146V67.856z"/>
		<path fill="#FFFFFF" d="M91.559,67.856H77.834v-2.003c0.264-0.302,0.629-0.642,1.098-1.017c0.469-0.376,1.025-0.783,1.67-1.223
			c0.391-0.264,0.859-0.551,1.406-0.863s1.168-0.654,1.861-1.024c0.771-0.41,1.363-0.771,1.779-1.083
			c0.414-0.312,0.793-0.697,1.135-1.156c0.225-0.303,0.406-0.681,0.543-1.135c0.137-0.453,0.205-1.1,0.205-1.939
			c0-1.22-0.328-2.115-0.982-2.686s-1.494-0.856-2.52-0.856c-0.635,0-1.234,0.125-1.801,0.374s-0.992,0.593-1.275,1.033
			c0.068,0.312,0.154,0.684,0.258,1.113c0.102,0.43,0.152,0.85,0.152,1.26c0,0.371-0.152,0.7-0.461,0.988
			c-0.307,0.288-0.764,0.432-1.369,0.432c-0.488,0-0.865-0.168-1.129-0.505s-0.395-0.788-0.395-1.355
			c0-0.527,0.146-1.057,0.439-1.589s0.713-1.023,1.26-1.472c0.537-0.439,1.201-0.796,1.992-1.069s1.645-0.41,2.562-0.41
			c2.002,0,3.592,0.446,4.77,1.339c1.176,0.893,1.764,2.085,1.764,3.578c0,0.713-0.105,1.361-0.314,1.946
			c-0.211,0.585-0.549,1.103-1.018,1.551c-0.518,0.497-1.123,0.925-1.816,1.28c-0.693,0.356-1.754,0.852-3.18,1.485
			c-0.85,0.381-1.641,0.778-2.373,1.192c-0.732,0.415-1.332,0.817-1.801,1.207h11.264V67.856z"/>
	</g>
</g>
</svg>
