<?xml version="1.0" encoding="utf-8"?>
<!-- Generator: Adobe Illustrator 16.0.0, SVG Export Plug-In . SVG Version: 6.00 Build 0)  -->
<!DOCTYPE svg PUBLIC "-//W3C//DTD SVG 1.1//EN" "http://www.w3.org/Graphics/SVG/1.1/DTD/svg11.dtd">
<svg version="1.1" id="Layer_1" xmlns="http://www.w3.org/2000/svg" xmlns:xlink="http://www.w3.org/1999/xlink" x="0px" y="0px"
	 width="162.667px" height="112.781px" viewBox="0 0 162.667 112.781" enable-background="new 0 0 162.667 112.781"
	 xml:space="preserve">
<g>
	<g>
		<g>
			<path fill="#C2A787" d="M115.099,41.292l-16.02,19.01c-5.022-6.815-5.502,23.554,0,17.696l16.02,17.096
				c-9.324,10.164-23.553,16.739-36.464,16.739c-25.706,0-44.358-18.293-44.358-43.281c0-24.63,19.13-42.564,45.434-42.564
				C92.503,25.988,106.492,31.966,115.099,41.292z"/>
		</g>
		<g>
			<path fill="#CCB391" d="M117.007,14.32c19.576,0,32.201,8.108,32.201,20.501c0,7.992-5.329,14.826-13.669,17.374
				c9.729,2.201,16.101,10.309,16.101,20.502c0,13.898-12.857,22.817-32.663,22.817H75.89V14.32H117.007z"/>
		</g>
		<g>
			<path fill="#D7C0A9" d="M42.764,70.676l-4.171,11.468H11.026L45.312,0.948h27.566l33.012,81.195H77.28l-4.054-11.468H42.764z"/>
		</g>
	</g>
	<g>
		<path fill="#FFFFFF" d="M81.782,56.819L71.346,76.932h-1.839l9.817-18.604h-5.745c-0.85,0-1.514,0.01-1.992,0.029
			s-0.918,0.112-1.318,0.278c-0.303,0.127-0.574,0.452-0.813,0.974s-0.422,1.189-0.549,2h-0.894v-5.743h13.77V56.819z"/>
		<path fill="#FFFFFF" d="M97.119,71.584H83.394v-2.003c0.264-0.302,0.63-0.642,1.099-1.017c0.469-0.376,1.025-0.783,1.67-1.223
			c0.391-0.264,0.859-0.551,1.406-0.863s1.167-0.654,1.86-1.024c0.771-0.41,1.364-0.771,1.779-1.083s0.794-0.697,1.136-1.156
			c0.225-0.303,0.405-0.681,0.542-1.135c0.137-0.453,0.205-1.1,0.205-1.939c0-1.22-0.327-2.115-0.981-2.686s-1.494-0.856-2.52-0.856
			c-0.635,0-1.235,0.125-1.802,0.374s-0.991,0.593-1.274,1.033c0.068,0.312,0.153,0.684,0.257,1.113
			c0.102,0.43,0.153,0.85,0.153,1.26c0,0.371-0.153,0.7-0.462,0.988c-0.307,0.288-0.764,0.432-1.369,0.432
			c-0.488,0-0.864-0.168-1.128-0.505s-0.396-0.788-0.396-1.355c0-0.527,0.146-1.057,0.439-1.589s0.713-1.023,1.26-1.472
			c0.537-0.439,1.201-0.796,1.992-1.069s1.646-0.41,2.563-0.41c2.002,0,3.591,0.446,4.769,1.339
			c1.176,0.893,1.765,2.085,1.765,3.578c0,0.713-0.105,1.361-0.315,1.946s-0.549,1.103-1.018,1.551
			c-0.518,0.497-1.123,0.925-1.816,1.28c-0.693,0.356-1.753,0.852-3.179,1.485c-0.85,0.381-1.641,0.778-2.373,1.192
			c-0.732,0.415-1.333,0.817-1.802,1.207h11.265V71.584z"/>
	</g>
</g>
</svg>
