<?xml version="1.0" encoding="utf-8"?>
<!-- Generator: Adobe Illustrator 16.0.0, SVG Export Plug-In . SVG Version: 6.00 Build 0)  -->
<!DOCTYPE svg PUBLIC "-//W3C//DTD SVG 1.0//EN" "http://www.w3.org/TR/2001/REC-SVG-20010904/DTD/svg10.dtd">
<svg version="1.0" id="Layer_1" xmlns="http://www.w3.org/2000/svg" xmlns:xlink="http://www.w3.org/1999/xlink" x="0px" y="0px"
	 width="130px" height="40px" viewBox="0 0 130 40" enable-background="new 0 0 130 40" xml:space="preserve">
<path fill="#4F3C1E" d="M90.907,13.246c5.308-1.78,6.133,7.25,2.43,8.413c-2.72,0.853-4.335-0.632-4.71-2.958
	C88.273,16.506,88.59,14.023,90.907,13.246L90.907,13.246z M96.256,9.925c-1.57-1.186-1.523-2.037-4.343-2.771
	c-2.017-0.524-4.381-0.405-6.218,0.34c-3.104,1.259-5.313,4.548-5.522,8.85c-0.36,7.372,3.577,11.626,10.185,11.375
	c2.935-0.113,3.531-0.898,5.248-1.89c0.024,1.837,0.158,3.968-0.892,5.149c-0.878,0.99-2.938,1.353-4.75,0.975
	c-2.473-0.518-5.999-4.473-8.462-1.746c-1.223,1.354-0.814,3.391,0.229,4.552c2.983,3.315,18.148,5.023,21.299-3.243
	c1.148-3.017,0.74-7.67,0.74-11.125c0-2.561,0.338-9.811-0.424-11.601c-0.586-1.372-2.101-2.08-4.121-1.77
	C96.964,7.364,97.169,8.583,96.256,9.925L96.256,9.925z"/>
<path fill="#4F3C1E" d="M10.989,13.459c2.649-0.623,4.059,1.647,4.216,3.973c0.175,2.591-0.255,5.246-2.67,5.675
	c-2.941,0.521-4.04-1.482-4.224-3.984C8.126,16.601,8.729,13.99,10.989,13.459L10.989,13.459z M0,10.487v23.568
	c0.753,1.562,0.611,2.348,2.404,3.059c1.507,0.599,3.464,0.307,4.514-0.633c1.205-1.078,1.38-2.055,1.376-4.117
	c-0.003-1.86-0.001-3.721-0.001-5.581c0.733,0.385,1.098,1.058,2.015,1.649c4.522,2.92,13.566,0.703,13.376-10.842
	C23.497,6.224,13.386,4.946,9.483,8.104c-0.7,0.566-1.103,1.538-1.755,2.225c-0.825-4.4-5.364-3.633-6.632-2.372
	C0.172,8.876,0.447,9.522,0,10.487L0,10.487z"/>
<path fill="#4F3C1E" d="M37.113,12.681c3.235-0.796,4.359,1.577,4.517,4.307c0.163,2.813-0.104,5.829-2.456,6.505
	c-3.192,0.917-4.295-1.558-4.498-4.185C34.459,16.506,34.67,13.282,37.113,12.681L37.113,12.681z M50.157,18.523V17.59
	c-0.001-7.059-5.095-10.936-12.214-10.936c-14.058,0-13.9,15.264-8.656,19.899c3.139,2.774,8.684,3.907,13.689,2.291
	C47.101,27.512,50.157,23.805,50.157,18.523L50.157,18.523z"/>
<path fill="#4F3C1E" d="M115.035,15.7c0.107-5.584,7.605-5.135,7.479,0H115.035L115.035,15.7z M130,17.641v-1.887
	c-0.505-1.125-0.417-2.525-1.957-4.606c-5.3-7.163-18.494-5.674-21.033,3.206c-1.053,3.681-0.47,8.363,1.555,10.835
	c2.127,2.6,4.356,3.953,8.949,4.316c9.153,0.725,13.701-4.979,10.229-7.322c-1.709-1.152-3.625,0.227-4.922,0.975
	c-3.311,1.908-7.693,1.563-7.797-3.129c2.668-0.458,10.766,0.235,12.836-0.225C129.618,19.413,129.355,18.924,130,17.641L130,17.641
	z"/>
<path fill="#F05A28" d="M62.229,11.017c1.015-0.956,1.596-2.59,4.576-3.438c2.277-0.647,4.826-0.473,6.771,0.498
	c4.259,2.127,3.866,6.926,3.866,12.468c0,2.163,0.354,5.762-0.725,7.363c-1.055,1.564-3.736,2.273-5.847,1.078
	c-4.909-2.78,1.587-15.815-5.228-15.096c-3.578,0.377-2.726,5.308-2.725,9.454c0,2.797-0.129,4.762-2.25,5.773
	c-2.34,1.115-4.903,0.076-5.773-1.58c-0.971-1.852-0.602-12.564-0.564-15.551c0.033-2.655,0.786-4.36,3.382-4.603
	C60.844,7.089,61.625,8.561,62.229,11.017L62.229,11.017z M48.962,8.885l6.902,25.876l25.925-6.88L74.875,2L48.962,8.885
	L48.962,8.885z"/>
</svg>
