<?xml version="1.0" encoding="utf-8"?>
<!-- Generator: Adobe Illustrator 16.0.0, SVG Export Plug-In . SVG Version: 6.00 Build 0)  -->
<!DOCTYPE svg PUBLIC "-//W3C//DTD SVG 1.0//EN" "http://www.w3.org/TR/2001/REC-SVG-20010904/DTD/svg10.dtd">
<svg version="1.0" id="Layer_1" xmlns="http://www.w3.org/2000/svg" xmlns:xlink="http://www.w3.org/1999/xlink" x="0px" y="0px"
	 width="300px" height="124px" viewBox="0 0 300 124" enable-background="new 0 0 300 124" xml:space="preserve">
<g>
	<path id="e" fill="#E53238" d="M38.766,26.208C17.62,26.208,0,35.179,0,62.244c0,21.442,11.849,34.944,39.313,34.944
		c32.326,0,34.398-21.294,34.398-21.294H58.047c0,0-3.358,11.466-19.69,11.466c-13.302,0-22.869-8.986-22.869-21.58h59.861v-7.904
		C75.349,45.416,67.438,26.208,38.766,26.208z M38.22,36.31c12.662,0,21.295,7.757,21.295,19.383H15.834
		C15.834,43.35,27.101,36.31,38.22,36.31z"/>
	<path id="b" fill="#0064D2" d="M75.338,0v83.597c0,4.745-0.339,11.408-0.339,11.408h14.939c0,0,0.536-4.785,0.536-9.159
		c0,0,7.381,11.548,27.451,11.548c21.135,0,35.49-14.674,35.49-35.695c0-19.557-13.186-35.285-35.456-35.285
		c-20.854,0-27.334,11.261-27.334,11.261V0H75.338z M114.104,36.753c14.353,0,23.479,10.651,23.479,24.945
		c0,15.328-10.54,25.355-23.376,25.355c-15.317,0-23.58-11.961-23.58-25.219C90.626,49.48,98.04,36.753,114.104,36.753z"/>
	<path id="a" fill="#F5AF02" d="M190.544,26.208c-31.812,0-33.852,17.419-33.852,20.202h15.834c0,0,0.83-10.169,16.926-10.169
		c10.459,0,18.564,4.787,18.564,13.991v3.276h-18.564c-24.645,0-37.674,7.209-37.674,21.84c0,14.398,12.038,22.232,28.307,22.232
		c22.172,0,29.314-12.251,29.314-12.251c0,4.872,0.375,9.675,0.375,9.675h14.076c0,0-0.546-5.952-0.546-9.76V52.331
		C223.305,30.75,205.897,26.208,190.544,26.208L190.544,26.208z M208.017,63.337v4.367c0,5.697-3.516,19.861-24.212,19.861
		c-11.333,0-16.192-5.656-16.192-12.217C167.612,63.413,183.976,63.337,208.017,63.337L208.017,63.337z"/>
	<path id="y" fill="#86B817" d="M214.778,28.94h17.813l25.565,51.217l25.506-51.217H299.8l-46.459,91.184h-16.927l13.406-25.419
		L214.778,28.94z"/>
</g>
</svg>
