<?xml version="1.0" encoding="utf-8"?>
<!-- Generator: Adobe Illustrator 16.0.0, SVG Export Plug-In . SVG Version: 6.00 Build 0)  -->
<!DOCTYPE svg PUBLIC "-//W3C//DTD SVG 1.0//EN" "http://www.w3.org/TR/2001/REC-SVG-20010904/DTD/svg10.dtd">
<svg version="1.0" id="Layer_1" xmlns="http://www.w3.org/2000/svg" xmlns:xlink="http://www.w3.org/1999/xlink" x="0px" y="0px"
	 width="160px" height="160px" viewBox="0 0 160 160" enable-background="new 0 0 160 160" xml:space="preserve">
<g>
	<g>
		<path fill="#6F634C" d="M73.138,57.174c-0.003-1.946,1.568-3.521,3.515-3.517c1.946-0.005,3.518,1.567,3.518,3.514
			c0,1.943-1.569,3.514-3.515,3.519C74.71,60.683,73.139,59.117,73.138,57.174"/>
		<path fill="#6F634C" d="M71.09,66.367c-0.008-3.847-0.331-4.17-4.17-4.168c-1.946,0.003-3.516-1.565-3.519-3.515
			c-0.002-1.942,1.565-3.514,3.511-3.518c1.951,0.002,3.517,1.568,3.526,3.518c-0.002,3.836,0.325,4.162,4.164,4.159
			c1.949-0.002,3.515,1.564,3.52,3.518c-0.001,1.943-1.565,3.516-3.516,3.516C72.663,69.877,71.088,68.309,71.09,66.367"/>
		<path fill="#6F634C" d="M87.472,58.47c-0.006-3.843-0.329-4.17-4.168-4.162c-1.947,0.004-3.514-1.569-3.516-3.515
			c-0.004-1.945,1.561-3.514,3.509-3.518c1.949,0.002,3.52,1.567,3.52,3.515c0,3.839,0.329,4.159,4.166,4.157
			c1.948,0.003,3.517,1.572,3.52,3.519c0.001,1.942-1.567,3.518-3.514,3.518C89.046,61.982,87.472,60.418,87.472,58.47"/>
		<path fill="#6F634C" d="M89.319,48.935c-0.004-3.844-0.327-4.17-4.167-4.16c-1.95-0.002-3.518-1.564-3.518-3.516
			c-0.004-1.95,1.562-3.516,3.512-3.518c1.945-0.002,3.512,1.563,3.517,3.515c0.001,3.834,0.325,4.158,4.172,4.16
			c1.943-0.002,3.508,1.561,3.51,3.514c0.009,1.941-1.556,3.513-3.508,3.514C90.89,52.447,89.317,50.881,89.319,48.935"/>
		<path fill="#6F634C" d="M80.275,65.625c-0.006-1.942,1.564-3.517,3.511-3.514c1.942-0.003,3.517,1.565,3.518,3.505
			c0,1.956-1.573,3.525-3.514,3.526C81.843,69.148,80.275,67.575,80.275,65.625"/>
		<path fill="#6F634C" d="M64.9,49.314c-0.002-1.945,1.564-3.522,3.507-3.526c1.947,0.003,3.521,1.572,3.526,3.523
			c0,1.942-1.572,3.514-3.518,3.518C66.469,52.833,64.902,51.253,64.9,49.314"/>
		<path fill="#6F634C" d="M71.556,42.132c-0.002-1.947,1.567-3.514,3.509-3.52c1.951,0,3.518,1.572,3.524,3.523
			c-0.002,1.945-1.568,3.513-3.517,3.513C73.128,45.649,71.558,44.082,71.556,42.132"/>
		<path fill="#6F634C" d="M48.579,82.301c0.004-0.799-0.28-2.306-1.894-2.304c-1.682,0.002-2.002,1.724-2.043,2.309L48.579,82.301z
			 M50.526,89.233c-0.908,0.368-1.703,0.583-2.993,0.583c-2.843,0-5.126-1.675-5.131-5.813c-0.001-2.845,1.137-4.907,4.365-4.909
			c3.318-0.006,3.945,2.215,3.943,4.199l-6.133,0.002c-0.002,2.025,0.906,5.382,3.99,5.375c0.664,0.005,1.31-0.129,1.953-0.432
			L50.526,89.233z"/>
		<path fill="#6F634C" d="M59.762,87.14l-0.046,0.003c-0.337,0.751-1.307,2.665-3.571,2.667c-1.803,0-2.582-1.507-2.587-2.991
			l-0.004-7.49l2.175-0.01l0.005,6.423c0.002,1.294,0.198,2.454,1.294,2.449c2.155,0.004,2.751-3.353,2.751-4.628l-0.004-4.242
			l2.183-0.005v10.253l-2.194,0.003L59.762,87.14z"/>
		<path fill="#6F634C" d="M65.569,79.313l2.174,0.005l0.003,2.603l0.042-0.004c0.688-1.373,1.44-2.689,3.318-2.84l-0.001,2.259
			c-2.084,0.07-3.361,0.783-3.357,3.538l0.002,4.69h-2.175L65.569,79.313z"/>
		<path fill="#6F634C" d="M76.973,88.89c1.939,0,2.173-2.584,2.173-4.453c-0.002-1.88-0.242-4.457-2.177-4.462
			c-1.921-0.003-2.151,2.583-2.149,4.459C74.818,86.308,75.054,88.89,76.973,88.89 M72.448,84.434
			c-0.004-3.467,1.501-5.362,4.517-5.362c3.016-0.004,4.543,1.889,4.553,5.357c0,3.468-1.529,5.36-4.545,5.364
			C73.96,89.793,72.45,87.903,72.448,84.434"/>
		<path fill="#6F634C" d="M84.936,80.424l-1.784,0.004L83.146,79.3l1.787-0.004l-0.001-0.969c0.001-1.897,0.449-3.872,3.896-3.879
			c0.887,0.009,1.659,0.132,2.182,0.24l-0.002,1.484c-0.452-0.192-1.04-0.474-1.92-0.476c-1.765,0.008-1.977,1.276-1.977,2.374
			v1.224h2.907l-0.002,1.125h-2.905l0.008,9.132l-2.175,0.003L84.936,80.424z"/>
	</g>
	<path fill="#6F634C" d="M92.578,79.293l2.178,0.001l0.008,10.253h-2.178L92.578,79.293z M92.488,74.682l2.354,0.003l-0.001,2.151
		l-2.354,0.003L92.488,74.682z"/>
	<g>
		<path fill="#6F634C" d="M98.287,79.291h2.175l-0.002,2.432l0.047-0.003c0.341-0.751,1.332-2.674,3.594-2.668
			c1.809-0.002,2.59,1.5,2.586,2.987l0.008,7.495l-2.176,0.003l-0.003-6.413c-0.006-1.298-0.197-2.46-1.298-2.46
			c-2.152,0-2.752,3.362-2.75,4.632l0.002,4.247h-2.172L98.287,79.291z"/>
		<path fill="#6F634C" d="M115.213,81.301c-0.727-0.492-1.546-1.012-2.581-1.012c-0.688,0.003-1.467,0.304-1.463,1.077
			c-0.004,1.854,4.695,2.023,4.695,5.294c0.009,2.198-1.718,3.105-3.893,3.105c-1.313,0-2.218-0.278-2.74-0.452l0.002-2.003
			c0.63,0.435,1.638,1.084,2.847,1.079c1.246-0.001,1.765-0.651,1.764-1.296c-0.003-1.815-4.63-2.168-4.633-5.1
			c-0.005-1.552,1.031-2.953,3.595-2.945c1.097-0.004,2.043,0.293,2.408,0.403V81.301z"/>
		<path fill="#6F634C" d="M105.644,149.552c-0.004,0-0.004,0-0.004,0c-8.167,2.98-16.755,4.497-25.527,4.504
			c-41.161,0.03-74.679-33.433-74.71-74.598c-0.026-31.276,19.69-59.488,49.061-70.2c8.169-2.985,16.756-4.503,25.532-4.507
			c19.941-0.015,38.69,7.736,52.802,21.824c14.111,14.087,21.893,32.829,21.904,52.772
			C154.73,110.623,135.015,138.839,105.644,149.552z M54.843,10.298C25.917,20.855,6.488,48.646,6.517,79.461
			c0.029,40.547,33.041,73.514,73.593,73.478c8.642-0.006,17.102-1.498,25.145-4.43c28.936-10.556,48.357-38.351,48.333-69.164
			c-0.015-19.64-7.677-38.104-21.576-51.982C118.114,13.482,99.637,5.852,79.995,5.867C71.352,5.875,62.892,7.366,54.843,10.298z"/>
		<path fill="#6F634C" d="M127.087,97.098h-0.391l-93.65,0.069l-0.136-0.361c-2.085-5.653-3.149-11.493-3.157-17.362
			C29.74,58.369,43.024,39.359,62.813,32.14c5.5-2.014,11.288-3.032,17.199-3.035c27.735-0.023,50.314,22.527,50.339,50.261
			c0.002,5.87-1.054,11.709-3.132,17.363L127.087,97.098z M33.824,96.058l92.483-0.075c1.948-5.417,2.934-11.002,2.93-16.621
			c-0.021-27.115-22.102-49.16-49.225-49.141c-5.778,0-11.434,1.001-16.817,2.962c-19.351,7.059-32.342,25.651-32.327,46.26
			C30.868,85.055,31.868,90.643,33.824,96.058z"/>
		<rect x="7.713" y="96.009" fill="#6F634C" width="144.406" height="1.112"/>
		<path fill="#6F634C" d="M112.576,137.744l-0.005-6.695l-2.634,0.001v0.886l1.585-0.002l0.002,5.819L112.576,137.744z
			 M107.251,137.757l-0.003-6.7l-2.637,0.003v0.882l1.583-0.004l0.003,5.813L107.251,137.757z M102.439,134.479
			c0,0.738-0.237,1.366-0.71,1.893c-0.479,0.521-1.047,0.785-1.711,0.785c-0.672,0.001-1.246-0.261-1.726-0.785
			c-0.474-0.521-0.713-1.151-0.713-1.89c-0.003-0.736,0.236-1.366,0.713-1.889c0.476-0.532,1.051-0.787,1.719-0.788
			c0.669,0,1.239,0.261,1.712,0.78C102.199,133.107,102.438,133.74,102.439,134.479 M103.49,134.477
			c0-0.984-0.338-1.814-1.023-2.509c-0.673-0.692-1.494-1.035-2.454-1.032c-0.966-0.003-1.786,0.34-2.466,1.04
			c-0.683,0.691-1.024,1.53-1.02,2.506c0.001,0.975,0.341,1.809,1.023,2.496c0.683,0.688,1.505,1.038,2.468,1.032
			c0.963-0.003,1.781-0.345,2.453-1.035C103.15,136.282,103.49,135.45,103.49,134.477 M95.376,137.757v-0.88l-3.878,0.008
			l1.806-1.519c0.738-0.625,1.18-1.112,1.313-1.456c0.114-0.269,0.167-0.57,0.17-0.9c-0.006-1.362-0.742-2.046-2.217-2.045
			c-0.68,0.007-1.26,0.184-1.734,0.567c-0.234,0.177-0.578,0.523-1.012,1.037l0.716,0.529c0.478-0.514,0.807-0.825,0.997-0.938
			c0.259-0.168,0.567-0.254,0.923-0.252c0.824-0.002,1.235,0.378,1.238,1.146c-0.005,0.517-0.237,0.967-0.706,1.36l-3.248,2.816
			v0.542L95.376,137.757z M88.329,137.139c0-0.524-0.265-0.783-0.79-0.787c-0.525,0.004-0.793,0.263-0.793,0.789
			c0.001,0.535,0.267,0.802,0.8,0.799C88.066,137.939,88.332,137.668,88.329,137.139 M88.324,132.033
			c0.002-0.521-0.263-0.779-0.783-0.783c-0.533,0.004-0.799,0.267-0.801,0.787c0.001,0.532,0.271,0.799,0.802,0.799
			C88.064,132.836,88.326,132.569,88.324,132.033 M85.049,137.354c0-0.946-0.37-1.616-1.108-2.022
			c-0.149-0.08-0.398-0.186-0.753-0.291c0.934-0.467,1.398-1.191,1.398-2.16c0-1.283-0.623-1.925-1.866-1.921
			c-0.645,0.006-1.249,0.196-1.819,0.578c-0.173,0.112-0.351,0.261-0.536,0.419l0.617,0.699c0.629-0.51,1.14-0.771,1.542-0.771
			c0.69,0,1.041,0.373,1.036,1.11c0.005,1.012-0.742,1.688-2.224,1.996v0.777l0.703,0.001c1.317-0.001,1.971,0.559,1.979,1.68
			c-0.006,0.794-0.392,1.412-1.166,1.852c-0.569,0.313-1.394,0.489-2.479,0.514v0.9h0.351c1.317,0.001,2.364-0.306,3.155-0.923
			C84.658,139.179,85.051,138.365,85.049,137.354 M79.43,135.112l0.001-1.066l-2.68,0.001l0.002,1.067L79.43,135.112z M74.3,137.779
			l-0.004-6.699h-2.634l-0.004,0.883l1.587,0.004l0.004,5.813H74.3z M70.512,131.611v-0.528l-5.465,0.004v0.969l4.159-0.007
			l-1.592,4.151c-0.418,1.078-0.975,2.063-1.67,2.959c-0.04,0.066-0.115,0.157-0.219,0.28l-0.149,0.182
			c-0.022,0.008-0.037,0.022-0.046,0.044l-0.139,0.167l0.813,0.682c0.593-0.734,1.114-1.489,1.553-2.263
			c0.292-0.543,0.535-1.043,0.727-1.518L70.512,131.611z M59.6,137.877l0.001-6.786h-0.974l0.008,5.385
			c-0.03-0.209-0.117-0.41-0.272-0.614l-3.782-4.763l-1.067-0.003l0.003,6.696l0.982,0.003l-0.001-5.368
			c0.037,0.151,0.155,0.354,0.346,0.618l3.792,4.832H59.6z M51.193,137.799l-0.003-0.883l-3.167,0.002l0.002-2.118l2.549-0.003
			l-0.003-0.884l-2.554,0.001l0.004-1.935l3.086,0.003l-0.002-0.882h-4.147v6.697L51.193,137.799z"/>
		<path fill="#6F634C" d="M113.008,123.73l-0.002-6.697l-2.633,0.003v0.885h1.584l0.003,5.816L113.008,123.73z M107.682,123.74
			l0.001-6.698l-2.634-0.006l-0.003,0.889l1.587-0.004l0.001,5.816L107.682,123.74z M102.878,120.461
			c-0.001,0.737-0.234,1.373-0.713,1.894c-0.478,0.523-1.045,0.783-1.711,0.783c-0.674,0-1.247-0.258-1.727-0.778
			c-0.475-0.525-0.714-1.15-0.712-1.893c0-0.742,0.236-1.367,0.712-1.894c0.48-0.521,1.051-0.787,1.725-0.787
			c0.664,0.004,1.231,0.265,1.709,0.784C102.637,119.091,102.878,119.723,102.878,120.461 M103.929,120.462
			c-0.002-0.984-0.342-1.816-1.025-2.508c-0.671-0.694-1.494-1.042-2.458-1.037c-0.961,0.006-1.779,0.347-2.463,1.038
			c-0.68,0.692-1.02,1.53-1.018,2.516c-0.002,0.968,0.341,1.803,1.021,2.495c0.684,0.687,1.504,1.031,2.47,1.03
			c0.962,0,1.777-0.348,2.454-1.041C103.587,122.266,103.93,121.432,103.929,120.462 M95.813,123.749l0.007-0.877l-3.887-0.009
			l1.809-1.515c0.735-0.619,1.174-1.108,1.313-1.453c0.114-0.275,0.167-0.576,0.169-0.9c0-1.363-0.741-2.04-2.217-2.043
			c-0.683,0.001-1.263,0.188-1.736,0.563c-0.234,0.178-0.572,0.523-1.01,1.037l0.718,0.531c0.476-0.513,0.807-0.827,0.992-0.938
			c0.265-0.171,0.57-0.253,0.924-0.256c0.824-0.001,1.238,0.383,1.234,1.146c0.003,0.519-0.233,0.972-0.698,1.36l-3.249,2.821v0.528
			L95.813,123.749z M88.767,123.12c0-0.522-0.261-0.784-0.787-0.784c-0.53,0.003-0.796,0.267-0.794,0.788
			c-0.002,0.532,0.262,0.799,0.795,0.795C88.508,123.92,88.767,123.656,88.767,123.12 M88.76,118.021
			c0.002-0.522-0.258-0.788-0.784-0.783c-0.529,0.003-0.797,0.261-0.799,0.783c0.003,0.537,0.27,0.803,0.799,0.795
			C88.502,118.816,88.763,118.559,88.76,118.021 M85.657,123.753l0.002-0.881l-3.882,0.005l1.808-1.515
			c0.729-0.628,1.167-1.117,1.309-1.459c0.116-0.271,0.169-0.572,0.174-0.9c-0.004-1.364-0.745-2.046-2.221-2.044
			c-0.678-0.003-1.259,0.185-1.73,0.56c-0.237,0.184-0.577,0.526-1.016,1.04l0.715,0.539c0.479-0.521,0.807-0.838,0.993-0.946
			c0.267-0.167,0.572-0.253,0.931-0.253c0.818,0.004,1.232,0.382,1.236,1.148c-0.004,0.518-0.236,0.965-0.701,1.366l-3.252,2.816
			v0.532L85.657,123.753z M78.97,121.102l0.004-1.073l-2.68,0.005L76.29,121.1L78.97,121.102z M73.843,123.766l-0.006-6.7
			l-2.637,0.002l0.003,0.885h1.583l0.007,5.813L73.843,123.766z M70.057,117.6l-0.004-0.533l-5.465,0.003l0.001,0.968l4.158-0.001
			l-1.591,4.147c-0.419,1.074-0.976,2.062-1.666,2.96c-0.045,0.063-0.117,0.16-0.225,0.28l-0.151,0.184
			c-0.019,0.006-0.037,0.02-0.048,0.04l-0.135,0.167l0.815,0.69c0.595-0.741,1.113-1.502,1.551-2.274
			c0.291-0.538,0.532-1.038,0.727-1.516L70.057,117.6z M59.141,123.859l-0.003-6.785l-0.97,0.009l0.009,5.375
			c-0.031-0.203-0.121-0.408-0.271-0.614l-3.789-4.764l-1.062,0.003l0.003,6.694l0.981,0.005l-0.006-5.368
			c0.04,0.146,0.155,0.353,0.351,0.613l3.79,4.83L59.141,123.859z M50.73,123.784v-0.886l-3.167,0.005l-0.001-2.116l2.548-0.004
			v-0.877l-2.551-0.007v-1.933l3.082-0.003v-0.88l-4.152,0.007l0.012,6.697L50.73,123.784z"/>
		<path fill="#6F634C" d="M112.274,109.716l-0.004-6.697l-2.639,0.002l0.004,0.885l1.583,0.001l0.004,5.812L112.274,109.716z
			 M106.947,109.722l-0.008-6.697h-2.633l0.004,0.885l1.579-0.004l0.007,5.819L106.947,109.722z M102.136,106.446
			c0.006,0.738-0.237,1.372-0.712,1.893c-0.477,0.525-1.048,0.791-1.71,0.788c-0.671,0-1.245-0.259-1.724-0.784
			c-0.476-0.521-0.714-1.158-0.718-1.893c0.001-0.736,0.242-1.364,0.714-1.888c0.475-0.534,1.052-0.792,1.724-0.789
			c0.665,0,1.233,0.259,1.71,0.781C101.899,105.079,102.136,105.714,102.136,106.446 M103.188,106.442
			c0-0.98-0.341-1.81-1.027-2.506c-0.67-0.687-1.49-1.032-2.451-1.031c-0.961-0.004-1.785,0.347-2.468,1.036
			c-0.676,0.694-1.021,1.532-1.021,2.509c0.003,0.974,0.342,1.804,1.027,2.492c0.684,0.695,1.503,1.039,2.464,1.039
			c0.966-0.002,1.784-0.347,2.457-1.035C102.847,108.251,103.193,107.417,103.188,106.442 M95.078,109.733l-0.003-0.883
			l-3.884,0.003l1.81-1.514c0.738-0.628,1.179-1.111,1.316-1.46c0.11-0.269,0.167-0.567,0.17-0.9c0-1.359-0.746-2.046-2.221-2.036
			c-0.681-0.006-1.259,0.186-1.74,0.557c-0.23,0.177-0.563,0.523-1.005,1.04l0.717,0.528c0.474-0.514,0.807-0.825,0.993-0.937
			c0.262-0.171,0.567-0.259,0.926-0.256c0.819,0,1.228,0.383,1.235,1.15c-0.003,0.515-0.234,0.962-0.701,1.36l-3.251,2.819v0.535
			L95.078,109.733z M88.028,109.104c0-0.521-0.265-0.78-0.79-0.783c-0.528,0.001-0.79,0.267-0.793,0.789
			c0,0.531,0.263,0.799,0.799,0.797C87.761,109.907,88.028,109.637,88.028,109.104 M88.026,104.001
			c-0.005-0.525-0.265-0.78-0.79-0.78c-0.528-0.001-0.797,0.262-0.794,0.787c-0.001,0.532,0.264,0.799,0.796,0.802
			C87.759,104.805,88.022,104.535,88.026,104.001 M83.615,109.742l-0.008-6.698h-2.633v0.88h1.582l0.006,5.818L83.615,109.742z
			 M79.688,107.082l-0.003-1.069l-2.673,0.006l-0.004,1.065L79.688,107.082z M74.559,109.749l-0.004-6.701l-2.637-0.001l0.002,0.884
			l1.585,0.005v5.809L74.559,109.749z M70.775,103.585l-0.005-0.529l-5.469,0.003l0.004,0.961h4.161l-1.597,4.149
			c-0.419,1.075-0.972,2.057-1.665,2.958c-0.042,0.066-0.12,0.158-0.223,0.282l-0.152,0.177c-0.02,0.013-0.031,0.028-0.043,0.047
			l-0.138,0.17l0.813,0.683c0.597-0.74,1.116-1.494,1.554-2.269c0.286-0.53,0.531-1.04,0.727-1.511L70.775,103.585z M59.857,109.844
			l-0.005-6.782l-0.965-0.002l0.006,5.384c-0.032-0.209-0.123-0.409-0.269-0.617l-3.79-4.764l-1.065,0.003l0.006,6.7l0.98-0.002
			l-0.004-5.368c0.041,0.151,0.155,0.36,0.354,0.618l3.787,4.832L59.857,109.844z M51.447,109.763l0.001-0.881l-3.163,0.006
			l-0.006-2.118l2.557-0.003l-0.007-0.88l-2.552-0.004v-1.932h3.083l0.004-0.883h-4.156l0.01,6.7L51.447,109.763z"/>
		<path fill="#6F634C" d="M140.503,69.691c1.31,0.162,2.032,0.823,2.162,1.978c0.123,1.132-0.446,1.781-1.721,1.951L140.503,69.691z
			 M140.117,75.177l0.776-0.091c1-0.112,1.775-0.482,2.31-1.108c0.552-0.639,0.777-1.42,0.674-2.352
			c-0.13-1.149-0.614-2.012-1.462-2.617c-0.852-0.608-1.918-0.84-3.191-0.701c-1.262,0.141-2.244,0.603-2.945,1.367
			c-0.703,0.775-0.987,1.718-0.86,2.844c0.097,0.894,0.529,1.819,1.292,2.789l0.983-0.647c-0.614-0.706-0.956-1.372-1.028-1.999
			c-0.192-1.743,0.753-2.731,2.838-2.97L140.117,75.177z M136.368,66.703c-0.588-0.469-0.97-1.034-1.146-1.711
			c-0.478-1.814,0.254-2.975,2.193-3.487c0.881-0.232,1.656-0.176,2.323,0.163c0.678,0.339,1.119,0.894,1.32,1.683
			c0.168,0.628,0.097,1.27-0.204,1.932l1.24,0.459c0.198-0.515,0.294-1.006,0.299-1.454c0.001-0.409-0.045-0.811-0.15-1.199
			c-0.308-1.194-0.957-2.067-1.939-2.633c-0.993-0.549-2.106-0.662-3.328-0.34c-1.195,0.313-2.067,0.931-2.62,1.867
			c-0.552,0.942-0.668,2.004-0.361,3.188c0.209,0.793,0.575,1.464,1.104,2.028c0.035,0.051,0.103,0.116,0.18,0.192
			c0.049,0.057,0.134,0.134,0.248,0.243L136.368,66.703z M132.428,58.992l5.423-2.648c1.34-0.659,1.703-1.624,1.085-2.894
			c-0.355-0.725-0.91-1.245-1.666-1.578c-0.361-0.166-0.852-0.34-1.471-0.505l1.518-0.742l-0.592-1.205l-7.243,3.544l0.588,1.199
			l4.425-2.166c1.865,0.543,2.965,1.158,3.298,1.838c0.185,0.374,0.175,0.68-0.021,0.926c-0.155,0.167-0.422,0.34-0.793,0.522
			l-5.133,2.508L132.428,58.992z M129.654,43.617c1.226-0.476,2.176-0.239,2.837,0.722c0.651,0.936,0.452,1.774-0.59,2.522
			L129.654,43.617z M131.913,48.626l0.646-0.439c0.827-0.576,1.33-1.27,1.501-2.081c0.185-0.823,0.008-1.616-0.525-2.388
			c-0.655-0.946-1.501-1.482-2.519-1.615c-1.042-0.123-2.094,0.177-3.142,0.904c-1.049,0.726-1.694,1.585-1.945,2.601
			c-0.254,1.015-0.059,1.984,0.581,2.907c0.511,0.746,1.331,1.356,2.467,1.843l0.559-1.034c-0.878-0.333-1.496-0.758-1.853-1.275
			c-1.001-1.442-0.635-2.759,1.093-3.96L131.913,48.626z M123.125,43.6l9.863-8.426l-0.865-1.021l-9.865,8.431L123.125,43.6z
			 M120.284,40.43l9.43-8.912l-0.914-0.973l-9.434,8.913L120.284,40.43z M116.821,30.507c1.03-0.817,2.008-0.865,2.919-0.159
			c0.903,0.703,0.961,1.57,0.195,2.596L116.821,30.507z M120.474,34.62l0.481-0.613c0.617-0.796,0.888-1.604,0.814-2.434
			c-0.071-0.834-0.476-1.539-1.217-2.116c-0.908-0.707-1.868-0.971-2.885-0.784c-1.039,0.182-1.943,0.784-2.732,1.792
			c-0.776,1.003-1.141,2.023-1.081,3.058c0.063,1.042,0.541,1.915,1.424,2.606c0.716,0.553,1.684,0.896,2.907,1.021l0.225-1.155
			c-0.935-0.054-1.654-0.275-2.151-0.662c-1.382-1.085-1.426-2.446-0.14-4.099L120.474,34.62z M111.937,31.146
			c-0.738,0.099-1.412-0.017-2.026-0.373c-1.631-0.908-1.955-2.246-0.968-3.993c0.445-0.799,1.025-1.314,1.736-1.555
			c0.711-0.25,1.423-0.178,2.12,0.215c0.577,0.319,0.985,0.821,1.242,1.498l1.2-0.568c-0.233-0.502-0.515-0.916-0.839-1.231
			c-0.287-0.287-0.606-0.525-0.958-0.727c-1.076-0.607-2.156-0.75-3.247-0.439c-1.087,0.327-1.935,1.05-2.56,2.146
			c-0.608,1.079-0.77,2.141-0.49,3.188c0.294,1.048,0.972,1.869,2.035,2.471c0.712,0.402,1.461,0.614,2.228,0.624
			c0.063,0.003,0.152,0.009,0.26,0.005c0.077,0,0.194,0,0.351-0.005L111.937,31.146z M104.89,29.13l-0.864-4.895l4.029-2.518
			l-1.402-0.623l-2.854,2.011l-0.418-3.455l-1.518-0.668l0.869,4.741l-4.125,2.635l1.37,0.599l2.94-1.988l0.478,3.502L104.89,29.13z
			 M93.97,19.797c0.639-1.158,1.518-1.576,2.645-1.262c1.094,0.304,1.479,1.081,1.16,2.324L93.97,19.797z M98.914,22.204
			l0.208-0.753c0.273-0.97,0.212-1.823-0.174-2.557c-0.38-0.75-1.027-1.253-1.927-1.501c-1.111-0.302-2.102-0.187-2.973,0.378
			c-0.879,0.565-1.494,1.462-1.837,2.701c-0.339,1.218-0.283,2.3,0.171,3.242c0.454,0.937,1.219,1.552,2.31,1.854
			c0.868,0.243,1.891,0.197,3.071-0.154l-0.228-1.155c-0.893,0.309-1.634,0.378-2.242,0.213c-1.692-0.476-2.253-1.718-1.692-3.747
			L98.914,22.204z M88.992,11.131c-0.548-0.309-1.125-0.483-1.742-0.537c-1.053-0.08-1.919,0.189-2.607,0.811
			c-0.675,0.624-1.063,1.506-1.154,2.657l-0.104,1.325l-1.375,0.233l-0.063,0.779l1.348,0.109l-0.558,6.923l1.336,0.108l0.552-6.923
			l1.896,0.154l0.092-1.121l-1.904-0.15l0.084-0.988c0.151-1.896,0.909-2.789,2.266-2.68c0.358,0.028,0.786,0.155,1.296,0.374
			L88.992,11.131z M78.458,19.349c0.053,0.854-0.143,1.587-0.59,2.214c-0.447,0.619-1.021,0.952-1.717,1
			c-0.715,0.047-1.329-0.217-1.853-0.776c-0.522-0.563-0.81-1.268-0.864-2.123c-0.057-0.85,0.143-1.586,0.595-2.21
			c0.443-0.622,1.021-0.958,1.733-0.999c0.699-0.044,1.311,0.212,1.829,0.774C78.116,17.792,78.407,18.493,78.458,19.349
			 M79.917,19.249c-0.074-1.154-0.532-2.129-1.364-2.919c-0.822-0.781-1.777-1.14-2.87-1.071c-1.086,0.072-1.995,0.545-2.723,1.426
			c-0.729,0.887-1.057,1.913-0.985,3.074c0.075,1.163,0.526,2.127,1.363,2.902c0.833,0.799,1.796,1.157,2.884,1.09
			c1.079-0.069,1.985-0.545,2.711-1.436C79.663,21.435,79.992,20.418,79.917,19.249 M59.75,21.667
			c-0.093-1.313,0.411-2.141,1.523-2.496c1.086-0.342,1.833,0.098,2.243,1.31L59.75,21.667z M65.207,20.992l-0.237-0.745
			c-0.299-0.964-0.818-1.646-1.54-2.052c-0.73-0.417-1.543-0.485-2.434-0.205c-1.103,0.348-1.861,0.992-2.282,1.935
			c-0.435,0.956-0.457,2.049-0.07,3.271c0.383,1.208,1.017,2.081,1.912,2.625c0.892,0.538,1.875,0.641,2.947,0.299
			c0.864-0.27,1.689-0.871,2.487-1.806l-0.823-0.844c-0.572,0.743-1.161,1.208-1.761,1.392c-1.672,0.531-2.828-0.203-3.461-2.205
			L65.207,20.992z M57.616,26.154c-0.29,0.567-0.563,0.905-0.803,1.023c-0.269,0.135-0.464,0.084-0.595-0.151
			c-0.022-0.019-0.053-0.077-0.097-0.162l-0.32-0.575l-2.018-4.128l1.917-0.936l-0.49-1.004l-1.92,0.936l-1.03-2.113l-1.201,0.587
			l1.031,2.116l-1.062,0.892l0.342,0.701l1.216-0.596l2.357,4.833c0.527,1.08,1.252,1.384,2.181,0.938
			c0.481-0.238,0.941-0.836,1.38-1.806L57.616,26.154z M50.568,29.409c-0.444,1.086-0.878,1.76-1.298,2.02
			c-0.619,0.384-1.108,0.274-1.476-0.313c-0.148-0.246-0.241-0.536-0.262-0.868l2.157-2.257L50.568,29.409z M52.869,29.302
			c-0.379,0.155-0.637,0.147-0.784-0.015l-2.609-4.202c-0.703-1.14-1.805-1.248-3.299-0.326c-0.735,0.459-1.24,0.972-1.519,1.531
			c-0.276,0.566-0.278,1.076,0.005,1.529c0.087,0.144,0.216,0.258,0.385,0.344l0.995-0.949c-0.107-0.09-0.182-0.159-0.218-0.224
			c-0.245-0.39-0.018-0.803,0.678-1.231c0.867-0.538,1.475-0.526,1.829,0.041l0.766,1.235l-2.028,2.036
			c-0.867,0.871-0.984,1.823-0.346,2.853c0.744,1.2,1.728,1.418,2.942,0.664c0.517-0.318,0.918-0.748,1.212-1.295
			c0.116-0.198,0.247-0.525,0.393-0.992c0.402,0.543,1.042,0.582,1.921,0.126L52.869,29.302z M45.115,33.389
			c-0.161,0.729-0.504,1.325-1.034,1.775c-1.43,1.215-2.794,1.066-4.093-0.459c-0.591-0.691-0.883-1.42-0.864-2.167
			c0.008-0.754,0.319-1.39,0.931-1.918c0.499-0.422,1.107-0.646,1.833-0.65l-0.124-1.328c-0.549,0.054-1.036,0.171-1.443,0.367
			c-0.367,0.173-0.707,0.396-1.012,0.653c-0.938,0.803-1.448,1.77-1.529,2.898c-0.063,1.13,0.318,2.18,1.141,3.141
			c0.801,0.945,1.744,1.461,2.817,1.549c1.089,0.088,2.103-0.267,3.028-1.063c0.622-0.531,1.072-1.155,1.344-1.877
			c0.031-0.047,0.062-0.132,0.099-0.245c0.033-0.074,0.069-0.179,0.114-0.33L45.115,33.389z M31.083,31.757
			c-0.675,0.215-1.183,0.429-1.537,0.629c-0.387,0.227-0.728,0.522-1.032,0.866c-0.684,0.789-0.979,1.646-0.875,2.562
			c0.112,0.925,0.599,1.764,1.462,2.508l1.008,0.874l-0.632,1.244l0.591,0.51l0.888-1.019l5.255,4.536l0.873-1.009l-5.254-4.538
			l2.12-2.453l5.248,4.537l0.884-1.018l-6.099-5.271l-3.003,3.471l-0.756-0.654c-1.441-1.247-1.723-2.385-0.84-3.405
			c0.427-0.498,1.152-0.895,2.172-1.202L31.083,31.757z M34.244,47.152l-6.593-4.634l-0.772,1.089l6.601,4.634L34.244,47.152z
			 M25.472,40.727c-0.478-0.341-0.878-0.262-1.213,0.212c-0.338,0.474-0.268,0.879,0.207,1.215c0.477,0.334,0.882,0.26,1.215-0.213
			C26.019,41.468,25.945,41.062,25.472,40.727 M30.722,49.426c0.076,0.63,0.054,1.063-0.083,1.299
			c-0.146,0.26-0.334,0.332-0.566,0.212c-0.04-0.008-0.098-0.034-0.181-0.078l-0.593-0.294l-4-2.258l1.053-1.858l-0.979-0.552
			l-1.047,1.862l-2.042-1.156l-0.658,1.162l2.044,1.154l-0.371,1.343l0.683,0.383l0.663-1.174l4.684,2.643
			c1.041,0.584,1.818,0.43,2.324-0.465c0.266-0.469,0.303-1.221,0.115-2.267L30.722,49.426z M22.832,51.173
			c-0.482,0.194-0.79,0.436-0.917,0.722c-0.216,0.494,0.01,1.355,0.678,2.599l-1.335-0.591l-0.538,1.226l7.375,3.25l0.542-1.214
			l-4.401-1.948c-0.971-1.282-1.362-2.147-1.164-2.591c0.051-0.12,0.229-0.25,0.521-0.394L22.832,51.173z M20.797,64.23
			c-1.156-0.641-1.574-1.522-1.263-2.639c0.303-1.1,1.08-1.49,2.315-1.169L20.797,64.23z M23.203,59.282l-0.753-0.208
			c-0.971-0.27-1.825-0.212-2.559,0.175c-0.748,0.385-1.245,1.028-1.5,1.93c-0.31,1.109-0.183,2.102,0.379,2.968
			c0.564,0.88,1.464,1.497,2.705,1.844c1.217,0.336,2.298,0.278,3.24-0.176c0.938-0.456,1.556-1.217,1.857-2.303
			c0.244-0.874,0.183-1.892-0.162-3.078l-1.152,0.236c0.31,0.884,0.379,1.628,0.213,2.237c-0.475,1.691-1.724,2.255-3.744,1.695
			L23.203,59.282z M14.327,66.382c-0.374,0.412-0.67,0.826-0.893,1.254c-0.351,0.681-0.573,1.396-0.67,2.137
			c-0.218,1.676,0.176,3.137,1.175,4.406c0.998,1.258,2.349,2.001,4.052,2.222c1.791,0.231,3.325-0.139,4.61-1.106
			c1.29-0.991,2.047-2.356,2.274-4.109c0.066-0.543,0.072-1.085,0.009-1.634c-0.048-0.47-0.166-1.018-0.363-1.643l-1.18,0.26
			c0.251,0.928,0.32,1.846,0.203,2.756c-0.175,1.362-0.761,2.4-1.748,3.115c-0.987,0.71-2.219,0.969-3.688,0.776
			c-1.33-0.166-2.375-0.708-3.129-1.622c-0.756-0.895-1.06-1.962-0.899-3.197c0.137-1.077,0.556-1.988,1.253-2.751L14.327,66.382z"
			/>
	</g>
</g>
</svg>
