<?xml version="1.0" encoding="utf-8"?>
<!-- Generator: Adobe Illustrator 16.0.0, SVG Export Plug-In . SVG Version: 6.00 Build 0)  -->
<!DOCTYPE svg PUBLIC "-//W3C//DTD SVG 1.0//EN" "http://www.w3.org/TR/2001/REC-SVG-20010904/DTD/svg10.dtd">
<svg version="1.0" id="Layer_1" xmlns="http://www.w3.org/2000/svg" xmlns:xlink="http://www.w3.org/1999/xlink" x="0px" y="0px"
	 width="340px" height="437px" viewBox="0 0 340 437" enable-background="new 0 0 340 437" xml:space="preserve">
<g>
	<g>
		<path fill="#C2A787" d="M296.531,349.239c0-42.416-34.386-76.802-76.802-76.802s-76.802,34.386-76.802,76.802
			c0,36.3,25.185,66.714,59.032,74.731l1.645-112.644l9.131,0.134l-1.666,114.092c2.844,0.318,5.731,0.488,8.66,0.488
			c2.086,0,4.151-0.086,6.195-0.249l-5.573-118.749l9.122-0.429l5.533,117.905C270.104,417.435,296.531,386.425,296.531,349.239z"/>
		<path fill="#F05A28" d="M203.605,311.327l-1.645,112.644c2.974,0.704,6.015,1.234,9.109,1.582l1.666-114.092L203.605,311.327z"/>
		<path fill="#F05A28" d="M220.352,307.043l5.573,118.749c3.082-0.247,6.113-0.673,9.082-1.272l-5.533-117.905L220.352,307.043z"/>
	</g>
	<g>
		<polygon fill="#D88128" points="47.593,157.856 62.243,71.29 6.117,165.847 10.493,178.214 		"/>
		<polygon fill="#D88128" points="86.595,157.666 60.531,72.05 63.195,71.67 119.32,157.095 102.007,172.696 		"/>
	</g>
	<g>
		<polygon fill="#7B4F2C" points="117.789,157.509 37.376,154.305 21.464,162.957 101.878,166.159 		"/>
		<polygon fill="#603813" points="117.492,232.06 133.382,223.414 117.766,157.514 101.878,166.159 		"/>
		<polygon fill="#1B75BB" points="109.895,241.515 25.06,238.136 8.148,166.759 92.982,170.138 		"/>
		<polygon fill="#4A99D0" points="109.768,161.011 24.934,157.633 8.148,166.759 92.982,170.138 		"/>
		<polygon fill="#126091" points="109.895,241.515 126.657,232.393 109.744,161.017 92.982,170.138 		"/>
		<polygon fill="#054B77" points="101.915,233.335 29.41,230.583 16.11,174.453 88.615,177.205 		"/>
	</g>
	<g>
		<path fill="#FAAF40" d="M121.413,156.144l-59.741-88.66L3.453,167.179l18.645,73.82l88.66,4.947l25.114-20.929L121.413,156.144z
			 M62.814,208.655c-40.335,0-54.666-41.896-54.666-41.896l53.905-93.377c0,0,42.237,63.355,55.736,84.127
			C117.789,186.808,94.777,208.655,62.814,208.655z"/>
		<path fill="#FAAF40" d="M45.27,48.698c7.974-2.886,15.287,5.386,14.571,11.952c-3.414,1.493-7.622,1.143-9.236-0.418
			C46.598,56.358,49.446,52.653,45.27,48.698z"/>
		<path fill="#FAAF40" d="M72.929,38.869c-10.573,3.893-14.122,17.304-9.624,22.641c4.671-1.435,9.194-5.176,10.128-7.898
			C75.751,46.856,70.47,45.836,72.929,38.869z"/>
	</g>
	<linearGradient id="SVGID_1_" gradientUnits="userSpaceOnUse" x1="210.3508" y1="226.5659" x2="196.662" y2="74.7455">
		<stop  offset="0" style="stop-color:#E6E7E8"/>
		<stop  offset="1" style="stop-color:#D0D2D3"/>
	</linearGradient>
	<path fill="url(#SVGID_1_)" d="M157.181,105.536c-8.372,28.539-13.699,76.484-13.699,120.623c0,57.078,31.202,99.695,73.059,99.695
		c37.291,0,64.688-16.361,64.688-57.838c0-41.73-32.598-56.697-54.795-56.697c-20.421,0-41.982,6.596-51.369,15.221
		c-8.372-34.247-7.229-91.324-2.283-119.863C176.96,82.577,157.181,105.536,157.181,105.536z"/>
	<g>
		<path fill="#F1F1F2" d="M237.47,291.607c16.949,4.006,47.873-1.971,68.52-9.848c-12.314-16.592-24.94-35.544-34.653-43.424
			c-20.168-16.363-61.732-30.368-84.728,2.79c-9.071,13.082-9.531,37.033,4.574,54.359
			C196.811,288.359,217.81,286.962,237.47,291.607z"/>
		<path fill="#58595B" d="M201.575,305.053c24.353,16.743,83.079,29.554,132.927,5.581c-8.001-2.608-18.146-14.904-28.513-28.874
			c-20.646,7.877-50.635,8.896-69.471,6.423c-20.029-2.63-39.708,0.177-45.336,7.303
			C194.037,298.992,197.476,302.233,201.575,305.053z"/>
	</g>
	<polygon fill="#F05A28" points="128.515,59.952 9.068,65.985 9.161,71.099 128.452,81.183 135.893,79.962 	"/>
	<circle fill="#E6E7E8" cx="162.256" cy="70.274" r="37.417"/>
	<g>
		<path fill="#F7FAFB" d="M157.055,56.999c-6.39,2.146-10.937,7.277-12.611,13.319c5.042,4.251,12.117,5.846,18.827,3.593
			c6.391-2.147,10.938-7.277,12.611-13.32C170.84,56.34,163.765,54.746,157.055,56.999z"/>
		<circle fill="#404041" cx="159.503" cy="66.235" r="6.976"/>
	</g>
	<polygon fill="#404041" points="155.898,29.171 133.463,34.252 133.78,36.662 181.406,40.278 184.373,32.723 	"/>
	<path fill="#4A99D0" d="M199.133,29.621c-1.511-4.722-27.037-30.632-37.644-23.333c-10.607,7.298-6.021,22.575-6.021,22.575
		l34.111,17.635l1.975-2.541C191.555,43.956,200.644,34.342,199.133,29.621z"/>
</g>
</svg>
