<?xml version="1.0" encoding="utf-8"?>
<!-- Generator: Adobe Illustrator 16.0.0, SVG Export Plug-In . SVG Version: 6.00 Build 0)  -->
<!DOCTYPE svg PUBLIC "-//W3C//DTD SVG 1.0//EN" "http://www.w3.org/TR/2001/REC-SVG-20010904/DTD/svg10.dtd">
<svg version="1.0" id="Layer_1" xmlns="http://www.w3.org/2000/svg" xmlns:xlink="http://www.w3.org/1999/xlink" x="0px" y="0px"
	 width="340px" height="480px" viewBox="0 0 340 480" enable-background="new 0 0 340 480" xml:space="preserve">
<circle fill="#AE8D6D" cx="184.518" cy="336.66" r="135.215"/>
<path fill="#EBCBA5" d="M318.494,167.99l-8.011-1.244v-0.01c-59.555-0.146-108.713-48.593-116.532-111.433
	c-17.484,44.003-54.652,75.126-98.299,77.849c0.027-0.193,0.042-0.39,0.061-0.584c-0.016,0.068-0.037,0.138-0.053,0.208
	l-5.614-0.872c-2.878-0.448-5.681,0.011-8.137,1.147c-4.176,1.931-7.337,5.837-8.094,10.719
	c-1.207,7.761,4.105,15.029,11.864,16.236l7.792,1.209c3.29,45.291,38.658,84.067,86.769,93.88l-1.582,22.135l18.214,1.752
	l2.299-21.629c46.494,1.848,87.851-24.138,104.279-63.097c0.559,0.157,1.1,0.347,1.686,0.438l8.992,1.396
	c7.759,1.205,15.026-4.108,16.233-11.866C331.566,176.462,326.252,169.195,318.494,167.99z"/>
<g>
	<circle fill="#F1F1F2" cx="223.251" cy="150.163" r="15.511"/>
	<circle fill="#603813" cx="223.252" cy="150.163" r="9.989"/>
</g>
<path fill="#EBCBA5" d="M61.709,245.185c0.879-7.301-3.568-41.117-6.696-44.492c-13.999,0.747-6.874,43.994-6.874,43.994
	l-9.156,5.064c10.601,3.383-0.578,26.438,2.449,27.049c0,0,16.315-2.213,17.741-7.472c1.423-5.261,2.18-12.069,2.339-17.471
	C61.673,246.457,61.709,245.185,61.709,245.185z"/>
<path fill="#404041" d="M179.193,6.971c-8.755,2.725-12.543,15.559-8.471,28.659c4.074,13.111,14.476,21.529,23.229,18.805
	L179.193,6.971z"/>
<path fill="#404041" d="M193.952,54.245c6.489,3.413,15.885-1.704,20.991-11.415c5.104-9.711,3.985-20.348-2.504-23.759
	L193.952,54.245z"/>
<path fill="#404041" d="M212.954,54.583c-6.257-0.673-12.436-0.811-18.507-0.5c-0.211,0.01-0.42,0.031-0.632,0.044
	c-47.62,2.69-87.885,34.498-98.102,78.441c-0.019,0.194-0.034,0.391-0.061,0.584c43.647-2.723,80.815-33.846,98.299-77.849
	c7.819,62.84,56.977,111.288,116.532,111.433C316.108,111.139,272.581,60.991,212.954,54.583z"/>
<polygon fill="#EBCBA5" points="69.862,405.569 94.944,332.08 75.578,325.426 51.094,400.988 "/>
<polygon fill="#EBCBA5" points="38.468,261.322 51.094,400.988 69.862,405.569 57.721,264.596 "/>
<path fill="#A87C4F" d="M187.699,174.927c-0.059,0-0.121-0.004-0.18-0.012l-11.944-1.194c-0.975-0.097-1.686-0.965-1.588-1.941
	c0.096-0.972,0.97-1.72,1.941-1.588l11.943,1.193c0.976,0.097,1.687,0.966,1.59,1.941
	C189.37,174.241,188.599,174.927,187.699,174.927z"/>
<path fill="#A87C4F" d="M183.418,193.204c-9.625,0-17.257-5.201-19.258-6.702c-0.783-0.587-0.943-1.698-0.354-2.482
	c0.584-0.781,1.698-0.945,2.482-0.355c3.762,2.814,17.1,11.243,30.907,1.376c0.797-0.57,1.904-0.386,2.475,0.411
	c0.57,0.797,0.387,1.906-0.411,2.474C193.785,191.841,188.338,193.204,183.418,193.204z"/>
<circle fill="#C3996B" cx="126.772" cy="171.957" r="1.962"/>
<circle fill="#C3996B" cx="143.229" cy="178.621" r="1.962"/>
<path fill="#C3996B" d="M232.777,188.277c0,1.083-0.882,1.963-1.962,1.963c-1.083,0-1.962-0.88-1.962-1.963
	c0-1.082,0.879-1.962,1.962-1.962C231.896,186.315,232.777,187.195,232.777,188.277z"/>
<circle fill="#C3996B" cx="268.495" cy="184.095" r="1.962"/>
<g>
	<defs>
		<polygon id="SVGID_1_" points="268.296,285.84 261.715,285.217 223.196,281.514 196.874,278.981 178.659,277.229 153.309,274.791 
			94.264,268.438 75.578,325.426 94.944,332.08 101.425,315.025 101.813,324.521 103.338,361.819 104.944,400.988 247.632,408.46 
			251.036,372.798 254.904,332.24 255.67,323.376 260.274,339.692 280.363,334.847 		"/>
	</defs>
	<use xlink:href="#SVGID_1_"  overflow="visible" fill="#F1F1F2"/>
	<clipPath id="SVGID_2_">
		<use xlink:href="#SVGID_1_"  overflow="visible"/>
	</clipPath>
</g>
<polygon fill="#EBCBA5" points="178.659,277.229 184.007,302.221 196.874,278.981 "/>
<polygon fill="#1B75BB" points="124.81,272.071 127.842,402.199 139.753,403.297 136.986,273.244 "/>
<polygon fill="#1B75BB" points="226.36,281.845 211.989,406.38 223.902,407.478 238.535,283.019 "/>
<polygon fill="#FFFFFF" points="179.785,261.469 142.206,283.793 165.58,280.471 184.007,302.221 178.659,277.229 "/>
<polygon fill="#FFFFFF" points="198.554,263.17 233.83,292.666 210.624,287.717 184.007,302.221 196.874,278.981 "/>
<polygon fill="#1B75BB" points="130.262,413.636 130.945,316.723 228.541,323.547 218.303,421.143 "/>
<g>
	<polygon fill="#F05A28" points="274.377,134.434 104.765,119.888 105.24,114.449 111.339,114.979 274.841,128.994 	"/>
	<path fill="#F05A28" d="M161.328,169.069c-0.531,0-1.069-0.022-1.62-0.071l-6.314-0.538c-9.198-0.782-23.094-1.96-27.624-2.53
		c-7.441-0.943-12.331-6.085-11.892-12.498c0.344-4.976,1.901-34.527,1.915-34.826l5.454,0.288
		c-0.063,1.218-1.572,29.896-1.918,34.913c-0.275,3.972,3.379,6.23,7.126,6.705c4.415,0.558,18.247,1.729,27.401,2.505l6.331,0.542
		c5.139,0.474,8.673-2.202,9.184-6.929c0.665-6.188,1.887-33.359,1.901-33.634l5.454,0.246c-0.049,1.125-1.244,27.616-1.928,33.972
		C174.016,164.462,168.686,169.069,161.328,169.069z"/>
	<path fill="#F05A28" d="M237.691,176.699c-0.449,0-0.904-0.021-1.362-0.061l-5.91-0.504c-8.935-0.757-22.441-1.901-27.019-2.479
		c-7.444-0.947-12.331-6.087-11.888-12.501c0.34-4.97,1.9-34.527,1.914-34.825l5.455,0.288c-0.064,1.217-1.576,29.898-1.919,34.912
		c-0.275,3.973,3.379,6.231,7.125,6.708c4.464,0.565,17.9,1.703,26.79,2.455l5.929,0.506c5.176,0.454,9.763-3.068,10.276-7.848
		c0.661-6.182,1.813-32.362,1.823-32.627l5.456,0.241c-0.05,1.083-1.169,26.614-1.851,32.97
		C251.725,171.215,245.221,176.699,237.691,176.699z"/>
</g>
<g>
	<path fill="#F1F1F2" d="M161.43,142.593c0,8.449-6.851,15.301-15.3,15.301c-8.448,0-15.301-6.852-15.301-15.301
		c0-8.447,6.853-15.3,15.301-15.3C154.579,127.293,161.43,134.146,161.43,142.593z"/>
	<circle fill="#603813" cx="146.13" cy="142.593" r="9.853"/>
</g>
<path fill="#EBCBA5" d="M47.799,244.356c-5.281-4.75-24.607-22.096-31.08-10.917c-6.473,11.177-14.308,32.137-13.144,40.759
	c1.164,8.622,25.396,13.613,34.741,10.125c9.342-3.483,15.202-13.115,15.103-22.377C53.321,252.684,47.799,244.356,47.799,244.356z"
	/>
<g>
	<path fill="#1B75BB" d="M247.632,408.46l-142.688-7.472l1.896,46.354c21.98,15.454,48.767,24.534,77.678,24.534
		c20.885,0,40.664-4.739,58.322-13.194l0.492-5.148L247.632,408.46z"/>
</g>
<g>
	<path fill="#EBCBA5" d="M280.363,334.847l-20.089,4.846l23.749,88.509c5.612-6.098,10.67-12.713,15.095-19.763L280.363,334.847z"/>
</g>
</svg>
