<?xml version="1.0" encoding="utf-8"?>
<!-- Generator: Adobe Illustrator 16.0.0, SVG Export Plug-In . SVG Version: 6.00 Build 0)  -->
<!DOCTYPE svg PUBLIC "-//W3C//DTD SVG 1.0//EN" "http://www.w3.org/TR/2001/REC-SVG-20010904/DTD/svg10.dtd">
<svg version="1.0" id="Layer_1" xmlns="http://www.w3.org/2000/svg" xmlns:xlink="http://www.w3.org/1999/xlink" x="0px" y="0px"
	 width="130px" height="80px" viewBox="0 0 130 80" enable-background="new 0 0 130 80" xml:space="preserve">
<g>
	
		<line fill="none" stroke="#603813" stroke-width="2" stroke-linecap="round" stroke-miterlimit="10" x1="54.435" y1="66.878" x2="54.435" y2="80"/>
	
		<line fill="none" stroke="#603813" stroke-width="2" stroke-linecap="round" stroke-miterlimit="10" x1="60.497" y1="63.878" x2="60.497" y2="77"/>
	<g>
		<polygon fill="#231F20" points="19.382,21.713 2.365,28.663 19.382,37.531 		"/>
		<path fill="#F7A18A" d="M34.002,6.254c21.211,0,42.9,32.176,62.555,32.176c19.653,0,26.362-15.279,28.76-15.519
			C122.441,49.035,94.879,68.809,64.2,68.809c-30.678,0-51.051-17.257-51.051-39.427C13.149,15.96,22.977,6.254,34.002,6.254z"/>
		<path fill="#F05A28" d="M96.656,54.541C83.514,34.662,53.332,25.17,41.81,36.775c4.319,10.604,12.117,19.794,20.536,22.004
			C71.678,61.229,82.5,59.574,96.656,54.541z"/>
		<circle fill="#F1F1F2" cx="31.684" cy="25.109" r="7.167"/>
		<circle fill="#5A4A42" cx="31.684" cy="25.109" r="5.333"/>
	</g>
</g>
</svg>
